<?xml version="1.0" encoding="utf-8"?>
<!-- Generator: Adobe Illustrator 16.0.3, SVG Export Plug-In . SVG Version: 6.00 Build 0)  -->
<!DOCTYPE svg PUBLIC "-//W3C//DTD SVG 1.1//EN" "http://www.w3.org/Graphics/SVG/1.1/DTD/svg11.dtd">
<svg version="1.1" id="Layer_1" xmlns="http://www.w3.org/2000/svg" xmlns:xlink="http://www.w3.org/1999/xlink" x="0px" y="0px"
	 width="272.219px" height="286.436px" viewBox="0 0 272.219 286.436" enable-background="new 0 0 272.219 286.436"
	 xml:space="preserve">
<g id="csTzimisce">
</g>
<g id="wmTzimisce3">
</g>
<g id="csSalubri">
</g>
<g id="wmSalubri2">
</g>
<g id="csRavnos2">
</g>
<g id="wmRavnos2">
</g>
<g id="csBanuHaqim_x5F_02">
</g>
<g id="logoVtM">
</g>
<g id="Dark_Pack">
</g>
<g id="Dark_Pack_2">
</g>
<g id="csAnarch">
	<g id="csCamarilla">
		<g id="csDuskborn">
			<g id="logoVtM_x5F_DE_1_">
			</g>
			<g id="logoVtM_x5F_IT">
			</g>
			<g id="logoVtM_x5F_PL">
			</g>
			<g id="logoVtM_x5F_PT">
			</g>
			<g id="logoVtM_x5F_FR">
			</g>
			<g id="logoVtM_x5F_ES">
			</g>
			<g id="logoVtM_x5F_DE">
			</g>
		</g>
	</g>
</g>
<path fill="#791618" d="M251.528,25.465L251.528,25.465C251.51,25.422,251.508,25.416,251.528,25.465"/>
<path d="M249.283,132.534c4.26-1.476,6.337-2.016,9.449-3.597c-9.453,1.296,8.391-4.819-0.479-5.362
	c2.069-0.939-4.263-0.287-5.344-0.309c-0.283-0.244-2.229-0.433,0.1-1.636c-3.194-0.498-6.674,0.331-11.797,1.436
	c0.007-0.188,0.004,0.006,0.004-0.155c1.323-0.308,2.646-0.626,3.96-0.957c-1.329,0.192-2.647,0.44-3.954,0.744
	c0.056-1.979-1.671-5.69-2.314-7.851c0.348,0.79,0.644,1.595,0.927,2.41c-0.501-2.123-1.412-5.901-3.35-6.993
	c0-0.688,1.918,2.864,1.479,1.85c-0.559-0.754-0.958-1.274-1.517-1.787c0.057,0.439,0.427,1.108-0.172-0.077
	c0.024,0.076,0.316,1.063,0.081,1.301c0.016-0.594-0.573-1.068-0.611-1.689c0.172,0.297,0.172,0.217,0.001-0.246
	c0.045,0.136,0.118,0.25,0.216,0.34c-0.904-3.962-3.483-7.694-5.536-11.291c0.482,0.758,0.97,1.513,1.465,2.264
	c-1.233-2.173-2.739-3.762-3.821-5.919c-2.296-4.59-2.355-4.842-0.148-9.29c2.652-5.355,5.414-10.661,8.118-15.99
	c-0.443,0.929-0.882,1.863-1.33,2.79c11.221-22.925,22.163-46.917,36.162-67.916c-0.319,0.119-0.638,0.239-0.956,0.357
	c0.231-0.442,0.463-0.882,0.692-1.324c-0.839,0.724-2.178,0.882-3.114,1.494c0.284-0.587-0.591-3.03-0.505-3.925
	c-7.095,13.979-11.755,23.313-20.198,35.256c1.667-2.415-0.618,0.18-1.065,0.986c-1.01,1.817-1.508,4.279-2.658,6.005
	c-0.723,1.082-1.813,1.19-2.152,1.681c-1.681,2.428-2.974,5.399-4.736,8.375c-2.639-1.78-5.02,5.65-6.186,7.959
	c0-0.003,0.464-0.148,0.464-0.122c-0.577,1.008-1.679,1.085-1.843,1.104c-1.056,0.912-0.472,0.936-1.612,0.941
	c-0.253,0.686-3.115,8.51-2.167,8.587c-0.179,0.081,0.825-0.835,0.759-0.788c-0.206,0.166-0.287,0.854-0.291,0.824
	c-0.647,0.031-1.889-0.413-2.476-0.532c0.009-0.126,0.462,0.676-0.28,1.051c-0.029-0.223-0.057-1.164-0.057-1.171
	c-0.53,0.987-0.245,1.107-0.947,2.044c1.074,0.455,0.787,0.927,1.818,1.447c-0.696,0.456-2.194,2.022-2.946,2.154
	c0.021,0.257,0.376,0.063,0.327,0.435c-1.932,0.093-0.368,1.193-0.103,1.87c-0.207,0.314-1.313,1.422-1.816,1.917
	c-1.722-1.492-1.321-1.403-1.341-2.529c-0.046-0.025-0.67,0.266-0.62,0.328c0.601-0.385,0.303-0.411,0.67-0.396
	c-0.512-0.421-2.506-1.078-3.365-1.183c-0.137-1.466-1.437-2.753-2.575-4.049c-0.425,0.477-0.944-0.738-0.165,1.083
	c-0.58-1.25-5.527-4.267-6.414-4.756c-1.515-0.836-1.281-2.738-4.312-1.505c0.228-3.942-2.427-3.478-5.582-4.403
	c0.8-1.318,0.604-1.068,0.688-1.971c-3.238,0.996-4.056-2.196-6.353-1.258c0.141-2.824-2.176-1.828-2.825-3.799
	c-0.415,1.89-1.216,3.597-2.403,5.125c-0.652-1.677-0.904-3.408-0.764-5.201c0.099,1.128-3.276-1.313-1.861-0.917
	c0.913,0.507-3.854-1.444-6.551-2.407c1.369-0.134,2.743-0.168,4.119-0.1c-2.646-1.052-4.028-2.745-5.875-0.58
	c-0.344-2.885-3.241-2.048-5.055-2.541c-0.482-0.132-13.708-2.292-13.725-2.327c0.244,0.121,0.487,0.235,0.733,0.351
	c-0.224,0.361-0.524,0.019-0.87,0.024c0.313-0.004,0.687,0.244,0.611,0.502c-1.857-0.529-2.471-1.199-3.214-0.132
	c0.02-0.03,0.006-0.026-0.041,0.011c-0.715-1.548-1.675-1.569-3.356-1.837c-0.549-0.087-2.043,0.43-3.337,0.58
	c-2.07,0.239-4.128,0.414-6.19,0.708c-1.674,0.241-4.294,3.616-4.25,0.71c-0.892,2.289-3.498-1.788-6.725-0.406
	c-0.075-0.607-2.136,1.154-2.634,1.429c-2.522,1.399-3.473,1.118-3.352,3.563c-0.853-2.259-5.686-4.959-8.657-1.458
	c-0.188,0.223-0.017,3.531-0.428,5.012c-1.446-1.307-1.478-2.479-3.633-2.723c-1.231,1.331-5.92,1.418-7.66,2.066
	c-1.585,0.59-0.531,0.333-1.545,0.718c-0.96,0.363-7.565,2.457-5.34,1.753c-4.556,1.441-10.888,5.317-12.231,6.49
	c-2.201,1.721-3.676,3.799-5.88,5.477c-2.929-7.379-5.204-12.346-7.943-20.212c0.191,0.28,0.381,0.561,0.57,0.839
	c-1.31-3.917-3.339-7.436-4.898-11.25c-0.337,0.136,1.477,4.52,1.459,5.113c-0.593-3.069-3.398-6.868-2.332-8.024
	c-1.662-4.282-3.616-8.56-5.357-12.863c1.034,2.958,2.419,5.783,3.489,8.727c-0.212-0.438-0.425-0.873-0.638-1.31
	c0.271,0.561,2.114,4.439,2.032,4.229c-0.009,0.644,0.224,1.102-0.191,1.779c-0.274-0.667,0.172-1.092,0.118-1.751
	c-0.107,0.42-0.215,0.839-0.32,1.256c-1.289-3.121-2.13-7.786-3.974-10.416c0.463,0.776,0.89,1.57,1.28,2.384
	c-2.14-4.543-3.767-9.31-5.566-13.991c0.301,0.651,0.602,1.3,0.904,1.952c-1.373-3.547-2.468-5.999-4.55-8.201
	c1.855,0.392,3.013,2.597,3.391,4.613c-1.729-4.443-4.709-5.795-8.444-9.008c0.447,1.062,0.36,2.356,0.746,3.44
	c-0.408-0.076-0.817-0.151-1.227-0.227c0.112,0.043,1.295,0.589,1.307,0.589c-0.313-0.051-0.627-0.105-0.944-0.158
	c0.901,1.403,2.271,5.444,3.812,4.501c-0.596,1.989-1.131,3.745-0.438,4.763c-0.122,0.072-1.19,0.291-1.393,0.287
	c2.886,5.706,3.966,11.333,5.198,16.975c1.378,6.315,4.854,13.236,5.487,19.531c0.354-0.372,0.711-0.745,1.066-1.12
	c0.191,0.138,0.382,0.276,0.573,0.414c-3.296,1.201,1.729,16.099,2.834,19.198c-0.01-0.025,0.014-0.056,0.059,0.07
	c-0.018,0.006,0.377-1.078,0.317-0.876c0.333,0.533-0.075,1.491-0.184,2.09c-0.452-0.266-0.906-0.533-1.36-0.797
	c1.832,4.205,3.854,6.689,2.282,10.666c-0.943,2.401-2.918,3.027-3.767,4.572c-0.242,0.44-1.451,5.979-2.175,8.138
	c-1.209-0.773-2.466-1.945-2.195,0.316c-0.869-0.692-4.528,3.387-5.521,6.16c-0.792,2.21-0.492,3.785-1.044,4.832
	c-0.607,1.151-1.305-0.028-2.175,1.855c-0.9,1.946,0.268,3.072-0.067,5.145c-5.619-1.563-0.336,15.599-5.353,16.628
	c0.989,1.533,0.86,3.064,2.178,4.272c-0.414,1.903-1.836-4.128,0.044,1.279c-5.164-0.195-4.649,2.153-5.076,6.861
	c-0.348,3.85,0.764,8.521-0.013,12.193c-1.524,7.199,2.868,1.459-2.384,4.357c-2.185,1.202-6.451,1.345-9.087,1.875
	c-4.992,1.003-12.264,0.726-16.608,3.103c-4.276,2.344-4.459,6.178-5.598,10.063c1.368-0.08,2.457,0.491,3.272,1.712
	c-5.753,2.582-3.812,8.029-6.768,11.973c2.025,0.793,4.082-0.269,6.494-0.891c-1.351,1.39-3.13,2.834-3.084,4.999
	c2.305-0.039,11.818,0.826,13.175-2.396c-0.042,0.271-0.058,0.544-0.044,0.82c0.886-1.501,3.568-5.925,3.171-1.621
	c1.738-3.675,2.285-0.833,2.695,1.303c2.077-0.502,7.064-4.61,7.798-6.158c1.089,1.332,0.715,2.279,0.57,4.591
	c2.524-0.498,7.109-2.281,9.706-2.198c4.057,0.13,1.356-1.439,4.424,2.74c0.964,1.313,0.118,0.366,1.896,0.586
	c-3.898,3.25,11.328,21.803,14.564,25.669c0.777,0.926,24.805,22.905,25.546,21.419c-1.132-0.676-2.168-1.03-3.21-1.625
	c7.011,4.586,14.001,8.023,21.863,10.873c-1.746-0.749-3.492-1.5-5.239-2.251c2.134,0.719,8.441,3.613,8.876,3.714
	c2.308,0.527,6.661,0.541,8.524,2.023c1.575,1.252-0.616,4.87,2.718,4.184c-2.547,2.08,4.714,15.103,4.89,18.333
	c-0.192-0.799-0.383-1.591-0.53-2.398c0.82,1.18,1.315,3.368,1.937,5.063c0.195-0.165,1.092,0.034,1.293-0.134
	c0,1.839-1.424,3.049,0.063,6.284c-0.231-0.604-0.371-1.413-0.573-2.072c1.608,2.037,2.804,2.784,5.207,5.138
	c-2.112-4.258,2.337-14.769,6.283-17.288c-0.743,0.512-0.725,0.271,0.06-0.72c-0.079,0.421-0.291,0.692-0.628,0.81
	c-0.006-0.434,0.995-2.137,1.278-2.71c0.491,1.13,0.275,1.949-0.71,2.621c1.259-0.843,1.805-3.088,3.095-4.724
	c-0.029-0.016-0.056-0.034-0.08-0.056c-1.139,1.282-1.836,2.583-2.209,4.125c0.078-0.247-0.033-2.081-0.056-2.068
	c-0.058,0.099-0.095,0.07-0.106-0.084c0.207,0.402-0.381,1.513-0.48,1.806c0.088-0.271-0.038-2.726,0.48-1.806
	c0.011,0.021,2.039-2.216,1.826-2.394c0.371,0.306,0.032,0.064,0.017,0.569c0.852,1.756,0.124-0.52,0.249-0.352
	c-0.071-0.06-0.048-0.046,0.064,0.044c-0.405-0.184-0.611-0.95-0.837-1.054c2.323,0.934,3.448-3.65,4.507-5.849
	c0.171,0.407,0.341,0.811,0.514,1.221c0.629-1.448,1.38-2.855,2.068-4.279c1.082,0.823,4.726-0.038,7.082-0.354
	c-0.927,0.195-1.85,0.222-2.766,0.079c0.946-0.282,2.844-0.773,3.796-0.696c-1.817,0.327-4.109,0.568-5.858,0.536
	c3.238-0.378,6.547-1.38,8.091-1.814c-0.245,1.015-2.464,1.9,0.082,1.257c-2.416,0.923-5.262,1.11-7.952,1.456
	c4.172-0.414,7.343-1.321,11.089-2.097c-0.659-0.212-0.091-0.591-1.372-0.313c0.368-0.681,0.422-0.19-0.071-0.759
	c0.137-0.028,0.825-0.222,0.629,0.034c0.118-0.154,0.511-0.607,0.58-0.659c0.014-0.009,0.034-0.023,0.03-0.022
	c-0.03,0.019,0.984,1.874,1.133,2.113c2.687-2.16,8.577-1.934,12.378-3.382c-0.661,0.282-1.341,0.501-2.039,0.647
	c4.033-1.517,10.127-6.133,14.108-7.018c-4.396,1.926-8.412,4-12.977,5.645c2.381-1.43,5.087-1.759,7.517-2.986
	c-0.052,0.033,6.24-2.971,7.282-3.755c2.49,0.844,5.826-2.432,8.553-4.162c-1.519,0.79,0.526-0.444,0.963-0.802
	c-0.156,0.146-0.278,0.259-0.463,0.381c0.667,0.049,1.407-0.444,2.291-0.413c-0.129,0.085-0.267,0.149-0.416,0.191
	c0.161-0.04,1.385-0.449,0.521-0.183c1.514-0.658,6.118-5.415,6.587-5.277c1.525-0.453,7.392-3.458,7.392-5.176
	c0.902-1.351,1.347-1.652,1.798-3.257c-0.237,0.456-0.536,0.861-0.898,1.214c0.086-0.435,0.096-0.58,0.481-0.843
	c-0.036-0.096,0.25-1.257,0.089-1.06c0.296,0.439,0.604-0.114,0.328,0.688c-0.563,1.564,4.068-1.977,2.843-2.208
	c-1.389,2.003-1.177,1.729-2.69,1.788c0.004-0.011,2.941-0.514,1.773-2.822c0.303-0.124,3.403-2.837,3.36-2.788
	c0.619-0.604,0.443-0.701,0.214-1.469c0,0.497,1.48-3.658,0.421-0.145c1.352-3.048,5.372-5.897,7.041-8.001
	c1.161-1.461,1.132-4.143,2.364-6.255c2.16,0.2,1.631-2.583,3.562-3.085c0.146-3.162,2.516-11.672,5.308-13.595
	c-0.337-0.308-0.691-0.161-1.068,0.441c0.907-0.654,0.753-0.936,0.387-1.483c0.166-0.03,1.455-3.561,1.735-3.903
	c-0.158,0.467-0.282,0.943-0.381,1.423c0.174-1.091,0.539-1.527,0.901-2.429c-0.512-0.19,0.156-0.046-0.683-1.432
	c0.184,0.429,0.297,0.879,0.34,1.349c-0.028-0.041-0.488-0.221-0.564-0.11c-0.049-0.8-0.188-2.077,0.427-2.26
	c-0.587,0.165-0.088-0.234-0.196-0.967c0.643,0.559,0.087,1.308-0.015,1.958c0.573-0.905,0.408-0.889,0.386-1.482
	c0.127,0.251,0.036,0.434,0.332,0.333c0.094-1.336,1.201-3.409,0.667-5.033c0.348,1.137-0.512,3.34-1.81,3.144
	c0.332-1.68,2.842-0.303,0.945-3.993c0.673,0.524,0.487,1.282,0.534,2.026c0.018-0.558-0.492-2.461-0.437-2.546
	c1.359,0.758,0.767,2.304,0.823,3.518c0.787,0.024-0.162-3.282-0.709-3.609c1.628-0.246,0.931-2.106,0.994-2.527
	c0.099,0.645-0.115,1.354,0.048,0.377c0.17,0.411,0.118,0.657-0.158,0.735c-0.117-1.38,1.665-4.588-0.196-4.406
	c-0.165-1.784,0.221-3.394,1.594-3.882c-0.107-0.253-0.421-0.275,0.256-0.097c-0.424-1.013-0.286-2.618-0.276-2.871
	c0.006-0.012,0.293,0.337,0.357,0.182c-1.091-0.877-0.606-8.901-0.669-10c0.393,2.872-1.048-7.857,0.141-3.105
	c-0.183-1.193-0.363-5.283-0.983-6.296c0.316,0.518,0.315,4.242,0.457,5.015c0.089-1.837-2.203-6.3-0.605-7.86
	C245.708,132.384,248.472,135.78,249.283,132.534 M207.857,125.226c0.496-0.387-0.071,1.699,0.112,1.547
	c-0.463-0.167,5.264-10.72,5.853-11.41c0.036,0.405,0.252,0.687,0.638,0.847c0.089-0.373-0.652-0.849-0.564-1.292
	c-0.281,0.188,4.315,11.051,4.755,12.34c-4.285,0.833-8.582,1.592-12.872,2.401C205.885,129.439,207.121,126.211,207.857,125.226
	 M65.258,155.723c-1.168,0.287,1.168,0.776,0.707,0.576c-0.048-0.062-5.885,2.722-5.891,0.005c0.062,0.39-0.074,0.616-0.41,0.674
	c-0.052-0.128-0.834-3.007,0.167-1.615c-0.018-0.046-0.33-2.948-0.421-2.945c0.368-0.025,0.539,0.209,0.51,0.708
	c0.078-0.685-0.27-2.306,0.078-2.43c-0.681,0.003-0.856-2.105-0.659-1.714c0.189-2-0.282-2.972,0.74-3.99
	c-0.236-0.296-0.711,0.057-0.521-0.614c0.168,0.146,0.486,0.381,0.646,0.588c0.153-0.646-0.06-0.855-0.635-0.626
	c0.469-2.183,2.524-7.955,2.217-10.749c1.32-0.468,3.7-4.858,3.197-5.525c-0.489-2.538,6.847-13.681,6.477-15.275
	c-0.418,0.14-0.613-0.125-0.813-0.303c0.324-0.22,1.25,0.289,1.638,0.417c-0.187-0.063,0.441-1.021,0.167-0.671
	c-0.222-0.124-0.241-0.316-0.052-0.577c0.164-0.488-0.393,1.122-0.506,1.099c0.168-0.09,0.816-1.412,0.886-1.529
	c0.024,0.279-0.29,1.064-0.249,1.264c0.411-0.316,0.978-1.612,1.351-2.266c0.417,0.729,0.01-0.009-0.148,0.34
	c0.389,0.837,3.116,2.958,2.154,4.154c-0.1,2.324,0.805,4.708,1.926,5.564c-1.286,1.778-0.26,1.351,0.536,2.383
	c0.714,0.29,3.461,10.8,4.011,12.111c-0.018-0.262,0.809-0.819,0.996-0.55c-2.279,2.525-0.656,3.566,2.124,5.127
	c-0.893-0.031-1.832,0.423-2.725,0.482c1.216,1.495,2.346,2.924,3.103,4.632c-0.248-0.263-0.46-0.55-0.636-0.866
	c0.307,2.357,0.944,2.771,0.826,3.144c-0.153,1.057,0.607,2.458,1.102,3.395c0.136-0.171,0.292-0.191,0.471-0.06
	c-0.021-0.035-0.673-0.978-0.837-0.86c0.311,0.061,0.46-0.063,0.448-0.369c-0.068-0.13,1.339,2.522,1.41,1.842
	c0.29,0.689-0.641-0.321,0.002,0.939c-0.354-0.013-1.78-1.341-1.919-1.735c0.131,0.548,0.983,0.62,1.009,1.082
	c-0.367-0.29-0.994,0.432,0.877,0.708c-1.888-2.019-9.056,2.638-11.299,2.257c-0.58-0.291-5.754,0.676-9.242,1.019
	c0.108,0.192,0.265,0.286,0.47,0.277C68.097,155.731,65.026,156.503,65.258,155.723 M113.87,226.887
	c-0.056,0.004-0.813-0.578-0.811-0.646c-0.199,0.526-2.032,0.253-1.928,0.219c-0.565-0.147-4.143-1.55-3.568-1.284
	c-2.573-0.885-1.866-0.124-2.276-1.551c-0.758,0.028,1.07,0.956-0.687,0.208c0.263-0.169,0.503-0.348,0.651-0.453
	c-3.689,0.337-10.206-7.694-11.85-7.621c-0.29-1.294-4.723-3.554-6.031-4.668c-3.217-2.738-7.99-8.369-10.633-11.71
	c0.24,0.637,0.806,0.928,1.163,1.462c-1.068-0.798-2.287-2.555-3.198-4.406c0.375,0.253,0.73,0.531,1.065,0.834
	c-1.36-2.125-5.939-11.387-6.756-10.606c0.81-1.502-2.147-3.63-1.861-5.124c0.797,0.251,0.124-0.263,0.382-0.222
	c4.827,0.719,14.878-3.307,19.83-4.475c0.108-0.024,4.542-1.338,5.111-1.257c4.404,0.622,0.748-0.72,3.076,2.172
	c0.821,1.017,1.833,6.159,2.579,6.34c-0.193-0.498-4.441-5.319,0.392,2.575c0.008-0.248,0.016-0.493,0.024-0.74
	c1.072,1.618,1.731,4.907,3.078,7.122c-0.223-0.274-0.431-0.561-0.617-0.863c0.095,0.836,1.341,3.864,0.873,2.704
	c-0.438,1.728,0.876,1.88,1.958,1.618c-3.465,1.473,1.65,1.476,3.526,1.589c-1.236,1.392-1.438,1.635-2.908,2.819
	c0.262,0.397,0.697,0.532,1.308,0.407c-0.896,0.901,1.618,2.063,3.115,3.021c-5.475,4.411,2.51,5.489,4.445,10.045
	c-0.88-1.345-3.195-2.95-2.801,0.047c-0.394-0.158-0.785-0.326-1.169-0.503c0.36,1.565,0.182,2.444,0.243,4.867
	c0.445,0.282,0.843-0.072,1.026-0.004c0.169,0.727-0.206,1.398,0.052,2.342c0.209-0.233,0.175-0.682,0.265-0.958
	c0.226,0.506,0.113,0.264,0.082,0.495c0.045,0.102,0.521-0.086,0.425-0.037c-0.083-0.259-0.308-0.387-0.308-0.71
	c0.933-0.672-0.049,1.633,0.026,1.521c-0.068-0.096-0.105-0.287-0.193-0.334c0.004,0.063-0.028,0.088-0.095,0.078
	c0.259-0.052,0.01,0.471-0.056,0.582c0.305-0.3,0.073,0.147,0.446,0.695c-0.344-0.424-0.191-0.879,0.103-1.21
	c0.011,0.058,0.049,0.951-0.127,0.26c0.018-0.056-0.072,0.428-0.077,0.162c-0.074,0.219,1.344,2.133,1.535,3.013
	c-0.11-0.872,0.405-1.124,0.654,0.34c0.609-0.526-0.57-0.335,0.044,0.481c-0.018-0.062,0.012-0.154-0.013-0.005
	c0,0-0.001,0-0.001,0.001c0.006,0.057-0.017-0.274,0.022-0.091c-0.083-0.034-0.821-0.426-0.729-0.418
	C112.863,225.397,113.936,226.278,113.87,226.887 M112.903,146.466c-0.447,0.224-0.919,0.369-1.415,0.433
	c-2.351,0.481-5.466,1.787-7.032-3.943c-0.273,0.22-0.306,0.514-0.1,0.877c-1.326-1.503-3.299-6.412-2.941-8.416
	c-0.389,2.169-0.136-2.853,0.208,2.326c0.754-1.419-5.27-10.494-4.72-12.689c-1.002-1.552-0.689-2.069-1.442-3.814
	c0.533,0.614,0.607,1.173,0.221,1.681c-0.457-0.841-0.845-1.684-1.133-2.584c-0.025-0.105,0.277,1.021,0.225,1.017
	c-0.508-0.653-0.8-2.552-1.059-3.42c-0.051-0.085-0.008-0.092-0.027-0.156c0.343,0.454,0.647,0.931,0.912,1.438
	c-0.983-2.211-1.711-4.499-2.753-6.649c0.687,0.499,1.035,1.165,1.047,1.995c0.003-1.24-1.062-2.794-1.561-4.042
	c0.23,0.137,0.423,0.323,0.575,0.551c-0.217-0.537-1.124-3.023-0.462-0.927c-1.082-0.937-3.472-5.428-2.677-4.365
	c-0.557-1.243-1.653-2.917-2.15-3.814c0.281,0.239,0.23-0.186,0.352,0.099c0.027-0.057,0.061-0.072,0.096-0.041
	c-0.026-0.041-0.007-0.07,0.063-0.086c-0.179-0.123-0.174-0.192-0.37-0.638c0.412,0.033,0.453,0.186,0.725,0.165
	c-1.387-1.152-1.764-2.6-2.533-4.445c0.148,0.283,0.295,0.568,0.444,0.852c-1.031-2.493-0.875-1.814,0.506-3.339
	c-0.626-0.314-1.145-0.105-1.552,0.631c0.021,2.652,0.019-0.199,0.015-0.197c0.372-4.576,5.62,1.093,4.816-3.984
	c1.46-0.624,3.411-1.958,3.772-2.983c-0.025-0.89,0.773-0.831,1.93-1.248c-0.137,0.056-1.061,0.345-1.089,0.439
	c1.535-0.243,8.299-2.309,7.831-2.9c0.65,0.317,0.09-0.02,0.511,0.45c-0.191-0.24,0.51,0.977-0.769-1.021
	c0.183,0.141,0.667,0.639,0.122,0.066c0.141,0.101,0.263,0.22,0.371,0.355c-0.139-0.217-0.035-0.135,0.317,0.249
	c-0.228-0.253-0.92-0.909-0.194-0.209c-0.293-0.243-0.481-0.529-0.749-0.785c-0.007,0.002,0.298,0.242,0.133,0.079
	c0.339,0.222,0.752,0.683,1.007,0.978c-0.718-0.66-0.095-0.122-1.104-1.071c0.035-0.011,0.207,0.166,0.023-0.01
	c0.007-0.001,0.463,0.364,0.477,0.379c-0.009-0.013-0.096-0.124-0.064-0.079c0.01,0.007-0.343-0.323-0.293-0.337
	c2.478,1.86,14.019-9.665,17.175-7.211c2.621,0.033,3.524-1.136,6.045-1.869c3.237-0.939,4.173-1.212,5.256-1.838
	c6.287,3.384,16.481-1.302,23.706,1.231c-0.499-0.367-0.994-0.739-1.483-1.113c1.819,1.732,2.753-0.194,2.676-0.122
	c0-0.135,0.048-0.257,0.149-0.361c0.058,0.139,0.175,0.196,0.134,0.015c0,0.095-0.134,0.35-0.219,0.56
	c-0.03,0.02,0.543-0.641,0.006,0.059c0.258-0.7,0.031-0.083,0.135-0.369c0.008-0.004,0.071,0.253,0.078,0.272
	c-0.036-0.248-0.13-0.131,0.005-0.496c0.072,0.274,0.141,0.551,0.215,0.826c-0.135,0.014-0.13-0.53-0.225-0.432
	c0.181,0.671,0.057,0.253,0.005,0.102c-0.02,0.053,0.089,0.237,0.102,0.292c-0.013,0.019-0.125-0.264-0.104-0.288
	c-0.023,0.401,0.165,0.045-0.131,0.208c0.266,0.813,0.414,0.622,0.56,0.94c2.626,0.476,4.644,1.136,7.399,1.702
	c-1.282,0.365-2.399-0.463-3.578-0.805c0.992,0.336,5.733,1.059,5.724,1.051c-1.639,0.857,0.996-1.025,1.039-1.04
	c-1.042,3.271,5.947,4.594,8.521,5.804c3.215,1.507,13.393,8.201,15.23,6.087c1.411,2.817,3.553,4.217,5.195,6.844
	c0.486-0.528,0.971-1.056,1.458-1.583c0.393,0.413-2.446,1.652-0.424,2.987c1.175,0.778,2.994,0.822,4.258,1.178
	c0.664,0.189,2.306-0.086,2.563-0.042c1.187,0.209,1.98,3.646,3.441,1.555c-0.85,1.55-1.66,3.122-2.429,4.717
	c1.147,1.211-1.917,4.591-2.122,6.21c-2.703,0.417-6.963,11.975-8.027,14.261c0.122-0.158,1.161,0.054,1.083,0.388
	c-4.415,0.001-3.92,6.811-9.062,8.083c0.551,0.013,1.102,0.023,1.653,0.036c-2.882,0.758-5.836,0.129-9.033,1.016
	c-2.937,0.815-5.066,2.883-8.589,2.846c1.202-0.163,1.03-0.506,2.362-0.676c-1.767,0.125-4.75,0.715-5.288,0.527
	c-0.293,0.704-0.333,0.618-1.187,0.723c1.843,0.029-5.281,0.994-0.852,0c-2.728-0.182-6.213,0.946-8.829,1.623
	c2.891-0.113-4.766,1.695,1.958,0.037c-2.741,0.389,0.805-0.154,1.08-0.471c-0.311,0.357-1.72,0.802,0.182,0.348
	c-1.063,0.298-3.263,0.824-3.934,0.827c-1.372,0.003-0.157,1.675-1.112,1.9c-0.607-2.438,1.164-2.831,3.053-3.165
	c-2.395,0.257-3.441,0.105-3.114,3c-0.145-0.37-0.364-0.436-0.656-0.202c0.141,0,0.275,0.034,0.4,0.099
	c-0.963,0.205-0.012,0.348-0.918,0.522c-0.883-0.206-0.789-0.292-1.905,0.09c-0.244-1.168-0.404-1.979-1.622-1.727
	c1.71,0.081-3.796,1.214-3.697,1.192c1.214-0.119,2.429-0.191,3.648-0.216c-0.692,1.069-8.752,1.539-9.381,1.941
	c-2.253-0.439-5.745,0.469-6.137,2.042c-0.394-0.167-0.326-0.521-0.718-0.363c0.273-0.595,0.545-1.188,0.815-1.784
	c-4.371,1.235-8.436,2.617-12.9,3.56c0.325-0.015,0.651-0.032,0.978-0.048c-0.099,0.018-2.671,0.662-2.572,0.638
	c-0.749,0.175,0.001-0.014-1.218,0.175c1.341-1.131-2.834,0.574-3.362,0.657C116.427,145.798,113.016,146.331,112.903,146.466
	 M153.273,193.416c-0.656,1.917-2.417,5.628-3.271,5.945c-0.05,0.506,0.41,0.1,0.539,0.535c-0.701,0.468-1.265,1.085-1.69,1.851
	c-0.402,0.71,0.755-1.642,0.787-1.694c-0.594,1.417-0.849,1.745-0.766,0.982c-1.332,1.447,0.617,0.568,0.758,1.614
	c-0.04-0.167-0.969-0.581-0.854-0.792c0.089,0.226,0.624,0.677,0.854,0.792c-0.241,0.023-0.317,0.035-0.233,0.038
	c-0.015,0-0.015,0-0.004-0.001c-0.504-0.013-0.308-0.027-0.766-0.098c0.478,0.111-0.972,1.667-0.873,1.625
	c0.181-0.536,0.313-1.084,0.398-1.641c-0.412,1.069-3.173,3.87-2.297,4c-1.109,1.052-1.645,2.317-2.292,3.478
	c-0.503,0.854-1.567,2.067-0.296,2.422c-0.761,0.067,0.138,0.446-0.516,0.801c0.287-0.185,0.421-0.424,0.641-0.144
	c-1.129,1.098-0.786-0.17-1.746,2.075c-0.423-0.124-0.423,0.617-0.393-0.428c0.094-0.991-0.054,0.745-0.144,0.872
	c-0.667-0.214-0.566-0.763,0.303-1.644c-0.003,0.574,0.009,0.357,0.037-0.646c-0.265,0.587-2.44,4.914-2.381,5.22
	c0.055-0.065-1.663,1.075-2.076,1.686c-5.162-7.77-8.123-17.76-11.382-25.96c-0.377,0.215-0.756,0.427-1.133,0.643
	c3.114-1.021,0.284-7.501-2.113-7.131c1.788-1.211-3.916-10.928-3.719-11.017c0.91,1.619-0.097-1.242,0.012-0.953
	c-0.249,0.796-0.254,1.844-0.605,2.604c-0.448-0.525-0.897-1.05-1.347-1.577c1.933-0.818,2.591-0.934,1.068-3.147
	c0.047,0.317,0.096,0.63,0.143,0.945c-1.276-1.681-0.67-4.085-2.817-5.947c1.279-0.348,0.398-0.575,0.978-1.695
	c0.007,0.091,0.007,0.087,0-0.009c0.148,0.051,0.319,0.203,0.695,0.822c-0.316-0.523,0.511,0.125,0.321,0.279
	c0.76,0.134,3.504-0.839,4.219-1.195c0.104-0.012-0.641-0.777-0.491-0.296c0.281-0.549,1.942-0.956,2.165-1.052
	c-0.3,0.105-0.447,0.021-0.438-0.252c0.853-0.21,2.251,0.154,2.879,0.246c-1.166,0.573-3.654,1.556-4.859,1.919
	c2.175-0.443,2.986-1.093,4.793-1.38c-0.946-0.27,2.03-0.701,2.348-0.772c-0.802,0.114-1.76-0.146-2.541-0.219
	c-0.018,0.027,6.528-1.189,7.357-1.377c4.008-0.914,6.09-1.174,10.364-2.507c-0.263,0.306,0.999-0.536,1.573-0.642
	c-0.436,0.674,2.172-0.44,1.613-0.32c2.913-0.229,5.302-1.736,9.273-1.838c-0.071-0.25-0.249-0.353-0.533-0.308
	c0.926-0.911,4.193-1.374,5.117-0.75c-1.077-0.731,1.117,0.381-1.414-0.367c-0.265-0.325,2.331-0.87,1.274-0.212
	c1.445-0.488,5.648-2.401,6.961-1.478c-0.217-0.236-0.488-0.242-0.814-0.021c0.071,0.072,3.966-1.033,4.56-1.158
	c-0.455,0.223-0.783,0.152-0.979-0.212c1.766-0.425,2.08-0.579,0.947-0.464c1.087-0.267,3.049-1.237,1.287,0.167
	c1.049-0.528,3.366-0.572,4.248-1.18c-0.399,0.18-0.783,0.385-1.153,0.62c0.813-0.104,3.018-1.071,3.362-0.668
	c0.052,0.198,0.128-0.88,0.214-0.086c0.226-0.589,0.722-1.057,1.315-1.213c-1.163,1.301-2.209,3.245-2.888,5.16
	c-0.412,0.285-8.479,11.266-8.269,13.591v-0.023c0.129,0.028,0.036-0.4,0.428-0.327c-0.15,0.296-0.506,0.48-0.288,0.791
	c-0.2-0.131-0.383-0.215-0.418-0.211c-0.239-0.837-2.675,3.705-2.317,1.817c-2.313,1.096-3.872,7.193-5.256,9.688
	c-1.309,2.355-6.22,6.947-3.72,9.024C156.343,190.926,153.659,192.908,153.273,193.416 M219.743,143.886
	c-0.683,1.538-0.486,9.045,0.845,10.275c-1.777,1.051-1.871,6.239,0.117,7.085c-0.439-0.024-1.349,0-1.707-0.185
	c0.168,1.319-3.74,15.363-3.149,15.54c0.12-0.301,0.091-0.561-0.088-0.781c-0.639,1.732-2.332,6.277-2.06,7.097
	c-1.897,1.38-1.105,2.224-1.553,4.255c-0.024-0.304-0.46-1.279-0.174-1.559c-0.226,0.907-0.493-1.303-0.517-1.437
	c-0.777,2.109-1.553,4.217-2.326,6.329c0.331,0.078,0.66,0.157,0.991,0.238c-0.835,1.122-2.401,2.147-2.657,4.714
	c-0.074,0.237,0.439-1.621,0.481-1.295c-0.05,0.7,0.067,0.693,0.353-0.014c-1.648,4.991-0.126-0.001,0.16,1.933
	c-0.32-0.245-0.798-0.567-0.987-0.248c0.67,0.017-0.513-0.705-0.31-0.537c-0.425,1.226-1.333,1.887-1.905,3.664
	c0.429-1.383,1.208-2.732,1.772-3.978c-0.087,0.28-0.251,0.262-0.491-0.061c-0.587,0.736-1.553,3.173-1.857,4.247
	c-0.2,0.44-0.366,3.125-2.873,4.488c-2.211,2.119-3.196,3.697-4.097,5.668c-0.625-0.231,0.106-0.229-0.017,0.034
	c-0.92-0.026-0.382-0.603-1.342,0.668c0.1-0.369-0.952,1.769-0.558,1.189c-0.548,0.66,0.214-0.295-0.424,0.61
	c-0.085-0.688-1.38,1.311-1.149,1.132c-3.328,1.993-3.106,2.38-7.323,4.091c0.179,0.213,0.396,0.237,0.661,0.068
	c-0.334,0.668-1.341,0.594-0.924,0.108c-0.33,0.355-0.229,0.318-1.022,0.176c0.176,0.29,0.263,0.154,0.609,0.21
	c-1.259,1.013,0.177,0.005-0.553-0.014c0.322-0.018-0.341,0.906-0.317,0.832c0.535-0.012,0.132-0.563,0.465,0.132
	c-0.719,0.176-0.141-0.157-1.084-0.124c0.494,0.561-0.123,0.421-0.576,0.601c0.425,0.158,0.853,0.314,1.28,0.47
	c-0.326,0.264-0.933,0.566-1.37,1.006c0.225-0.227,0.491-0.39,0.804-0.496c0.082-0.011-0.915,1.084-0.901,1.084
	c-0.299,0.223-6.406,2.825-7.296,2.527c0.309,0.174,0.611,0.106,0.91-0.202c-0.359,0.548-0.877,0.894-1.56,1.037
	c0.172-0.052,0.302-0.028,0.394,0.072c0.116,0.023-0.83,0.198-0.712,0.166c0.023,0.046,0.15,0.03,0.154,0.029
	c-0.293-0.171-0.056,0.099-0.072,0.125c-0.172-0.142-0.759-0.678-1.033-1.095c-0.003,0.004-0.114,0.98-0.496,1.332
	c-0.018-0.409,0.271-1.163,0.4-1.422c-1.189,1.262,0.273,1.244-1.632,1.965c1.12-0.366,2.14-0.112-0.537,0.817
	c1.426-0.83-3.504,2.685-0.797-0.054c-1.5,1.037-1.672,0.744-2.38,0.765c0.048-0.045-0.639,0.879-1.041,1.155
	c-0.335,0.148,1.097-1.19,1.119-1.246c-0.063,0.059-0.099,0.066-0.114,0.026c-0.679,0.711-2.19,1.411-2.641,1.007
	c-0.135-0.296,0.641-0.063,0.532-0.027c0,0.188-4.365,2.218-2.855,1.375c-0.264,0.203-0.551,0.365-0.857,0.487
	c1.348-0.876-9.763,1.9,2.062-1.007c-1.439,0.19-1.756,0.159-0.947-0.103c-1.451,0.08-1.281,0.918-2.206,1.213
	c-0.011-0.321,0.107-0.588,0.357-0.797c-1.144,0.705-1.635,1.474-3.354,1.866c-0.055-0.113,0.021-0.17,0.228-0.167
	c-0.281,0.166-0.466-0.414-0.524-0.676c0.351,0.574,0.098,0.813-0.754,0.72c0.024-0.074,0.662-0.864,0.694-0.916
	c-1.66,0.697-4.209,3.873-2.567-0.55c-0.529,0.497-1.058,0.998-1.588,1.497c1.115-2.121,2.8-3.972,3.529-6.296
	c-0.317,2.424,0.883-0.944,2.387-3.62c0.05-0.024,0.704-2.022,0.766-1.996c-0.002,0.068-0.171,0.628,0.096,0.715
	c0.436-1.533,1.221-7.197-1.139-4.467c0.593-0.594,3.61-5.57,2.574-2.202c1.262-1.444,2.225-3.063,2.891-4.862
	c0.115,0.622-0.148,0.883,0.547,0.852c1.95,0.112,2.244-8.647,2.953-10.143c-0.255,0.991,7.465-2.704,2.154-2.692
	c2.165-0.85,3.252-0.79,3.972-2.165c-2.816-1.661,3.438-2.633,0.006-4.14c1.855-1.315,2.316-3.048,0.731-4.228
	c2.384-0.007,1.737-1.657,1.078-3.632c0.811,0.14,1.548-0.035,2.215-0.519c-0.377-0.752-0.856-1.436-1.44-2.049
	c1.276,0.339,3.318,1.494,4.051,0.262c-0.256,0.476-0.192,0.674,0.197,0.591c0.33-0.41,0.42-0.804-0.046-1.373
	c0.117-0.012,0.932-0.273,0.844-0.174c0.533-0.644,0.453-1.412-0.24-2.306c1.567-0.206,2.393-1.059,2.47-2.555
	c-0.959,0.856-2.045,1.416-3.254,1.676c2.681-1.416,5.926-6.54,1.561-8.179c3.086-0.794,4.327-3.77,4.193-6.438
	c2.242,1.133,2.281-1.678,4.738-2.163c-0.421-0.768-0.311-0.74-0.979-1.585c0.077-0.087,0.154-0.201,0.271-0.241
	c0.032,0.008,0.712,0.542,0.768,0.515c0.31-0.623,1.771-6.919,1.015-6.68c7.226-5.412,18.074-6.052,27.013-8.438
	C219.455,142.812,220.1,143.381,219.743,143.886"/>
</svg>
