<?xml version="1.0" encoding="utf-8"?>
<!-- Generator: Adobe Illustrator 16.0.3, SVG Export Plug-In . SVG Version: 6.00 Build 0)  -->
<!DOCTYPE svg PUBLIC "-//W3C//DTD SVG 1.1//EN" "http://www.w3.org/Graphics/SVG/1.1/DTD/svg11.dtd">
<svg version="1.1" id="Layer_1" xmlns="http://www.w3.org/2000/svg" xmlns:xlink="http://www.w3.org/1999/xlink" x="0px" y="0px"
	 width="136.818px" height="281.156px" viewBox="0 0 136.818 281.156" enable-background="new 0 0 136.818 281.156"
	 xml:space="preserve">
<g id="csTzimisce">
</g>
<g id="wmTzimisce3">
</g>
<g id="csSalubri">
</g>
<g id="wmSalubri2">
</g>
<g id="csRavnos2">
</g>
<g id="wmRavnos2">
</g>
<g id="csBanuHaqim_x5F_02">
</g>
<g id="logoVtM">
</g>
<g id="Dark_Pack">
</g>
<g id="Dark_Pack_2">
</g>
<g id="csAnarch">
	<g id="csCamarilla">
		<g id="csDuskborn">
			<g id="logoVtM_x5F_DE_1_">
			</g>
			<g id="logoVtM_x5F_IT">
			</g>
			<g id="logoVtM_x5F_PL">
			</g>
			<g id="logoVtM_x5F_PT">
			</g>
			<g id="logoVtM_x5F_FR">
			</g>
			<g id="logoVtM_x5F_ES">
			</g>
			<g id="logoVtM_x5F_DE">
			</g>
		</g>
	</g>
</g>
<path d="M84.433,65.86l-21.518,8.475c-5.884,4.792-9.388,10.562-11.126,14.549c16.052,8.133,39.924,3.384,49.613-21.759
	C95.047,65.744,89.417,65.43,84.433,65.86 M98.007,159.327c2.671,2.012,4.396,5.207,4.377,8.809
	c-0.039,6.047-4.971,10.92-11.018,10.886c-1.619-0.01-3.152-0.381-4.53-1.021l-2.716,4.82l3.61,1.791
	c-2.286,4.953-8.738,5.641-9.663,23.003l0.018,25.263c0.231,1.433,0.789,2.823,2.146,4.541c2.779,3.521,6.589,13.581,3.992,19.472
	c-2.598,5.89-12.321,14.924-15.965,24.267c-3.62-9.352-13.321-18.412-15.904-24.308c-2.581-5.896,1.254-15.947,4.043-19.462
	c2.273-2.861,2.328-4.818,2.331-7.587H58.9l-0.015-19.746c-0.17-19.854-7.115-20.457-9.449-25.669l3.63-1.75l-2.655-4.85
	c-1.388,0.624-2.923,0.977-4.543,0.965c-6.048-0.034-10.921-4.966-10.886-11.014c0.019-3.345,1.539-6.325,3.915-8.32
	C15.91,145.881,0.015,117.032,0.057,83.727c0.029-22.275,7.125-43.248,19.976-59.056C32.969,8.76,50.16,0,68.441,0h0.073
	c37.688,0.047,68.301,37.685,68.246,83.898C136.715,117.07,120.878,145.78,98.007,159.327 M127.536,82.241
	c-0.167-6.272-0.949-12.409-2.3-18.303c-0.317,0.074-0.631,0.146-0.945,0.221c-2.309,0.534-5.156,1.192-5.913,1.495l-5.637,3.414
	c-3.71,3.576-11.021,16.717-13.569,21.571l-0.052,0.1l1.626,28.313l12.655,13.682C122.649,119.285,128.051,101.538,127.536,82.241
	 M81.061,11.549c-0.197,8.446,0.032,15.56,0.674,20.606c2.854,8.917,6.14,16.533,8.413,21.39c1.623,1.245,3.268,2.453,4.938,3.6
	l16.933,8.805l4.486-2.719c0.6-0.487,1.875-0.827,7.099-2.037c0.295-0.067,0.597-0.138,0.897-0.208
	c-3.071-11.576-8.381-22.112-15.634-30.751C100.951,20.808,91.374,14.444,81.061,11.549 M66.965,9.773
	c-5.232,0.14-10.276,1.159-15.063,2.923l0.432,1.169c0.995,1.397,14.604,20.222,32.601,35.474
	c-1.941-4.522-4.144-10.131-6.14-16.391l-0.06-0.266c-0.694-5.341-0.935-12.905-0.704-21.879c-3.119-0.662-6.297-1.026-9.51-1.046
	C68.003,9.755,67.485,9.76,66.965,9.773 M10.348,81.421c14.338-1.471,27.725-2.856,33.042-3.791
	c8.236-3.428,38.492-16.564,46.86-20.202c-22.784-16.76-40.288-41.642-40.472-41.902l-0.105-0.18l-0.305-0.624l-0.308-0.875
	C26.738,23.688,10.82,50.229,10.348,81.421 M14.433,105.561c3.025-3.68,7.793-8.404,12.404-12.973
	c4.001-3.965,8.1-8.028,10.666-11.049c-6.69,0.836-16.412,1.837-27.141,2.939c0.003,0.303-0.004,0.604,0.006,0.908
	c0.196,7.374,1.241,14.558,3.061,21.379C13.784,106.345,14.116,105.944,14.433,105.561 M41.978,149.134
	c6.331-15.321,14.381-29.857,21.299-39.942L39.224,87.599c-0.806-0.288-1.594-0.562-2.357-0.82
	c-2.304,2.436-5.057,5.164-7.891,7.972c-4.555,4.515-9.267,9.183-12.192,12.742c-0.689,0.838-1.456,1.749-2.341,2.781
	c3.17,10.15,8.104,19.394,14.594,27.121C32.979,142.086,37.335,146.005,41.978,149.134 M91.337,152.605
	c0.052-0.169,0.103-0.334,0.154-0.503c3.068-9.779,6.243-19.893,6.111-33.111l0.087-0.002l-1.529-26.694l-22.705,8.833
	c-6.566,6.851-19.223,26.039-28.874,49.656c8.159,4.854,17.124,7.316,26.358,7.072C78.16,157.662,85.028,155.808,91.337,152.605
	 M111.589,135.255l-11.023-11.912c-0.452,10.458-2.841,18.962-5.361,27.077C101.371,146.6,106.912,141.451,111.589,135.255"/>
</svg>
