<?xml version="1.0" encoding="utf-8"?>
<!-- Generator: Adobe Illustrator 16.0.3, SVG Export Plug-In . SVG Version: 6.00 Build 0)  -->
<!DOCTYPE svg PUBLIC "-//W3C//DTD SVG 1.1//EN" "http://www.w3.org/Graphics/SVG/1.1/DTD/svg11.dtd">
<svg version="1.1" id="Layer_1" xmlns="http://www.w3.org/2000/svg" xmlns:xlink="http://www.w3.org/1999/xlink" x="0px" y="0px"
	 width="180.932px" height="276.373px" viewBox="0 0 180.932 276.373" enable-background="new 0 0 180.932 276.373"
	 xml:space="preserve">
<g id="csTzimisce">
</g>
<g id="wmTzimisce3">
</g>
<g id="csSalubri">
</g>
<g id="wmSalubri2">
</g>
<g id="csRavnos2">
</g>
<g id="wmRavnos2">
</g>
<g id="csBanuHaqim_x5F_02">
</g>
<g id="logoVtM">
</g>
<g id="Dark_Pack">
</g>
<g id="Dark_Pack_2">
</g>
<g id="csAnarch">
	<g id="csCamarilla">
		<g id="csDuskborn">
			<g id="logoVtM_x5F_DE_1_">
			</g>
			<g id="logoVtM_x5F_IT">
			</g>
			<g id="logoVtM_x5F_PL">
			</g>
			<g id="logoVtM_x5F_PT">
			</g>
			<g id="logoVtM_x5F_FR">
			</g>
			<g id="logoVtM_x5F_ES">
			</g>
			<g id="logoVtM_x5F_DE">
			</g>
		</g>
	</g>
</g>
<g>
	<path d="M169.014,2.114c0,0,0-0.018-0.003-0.02c-1.91,0.878-3.908,1.693-5.982,2.454c-2.075,0.759-4.229,1.461-6.464,2.096
		c-20.107,5.25-40.85,5.92-61.423,7.772c-1.859,0.052-3.656,0.071-5.348,0.077C69.462,14.41,33.388,12.614,10.501,2.051
		c-0.004,0.033-0.01,0.063-0.01,0.063C5.002-0.469-0.932,1.773,0.123,7.103L1.134,10.8c0.684,2.486,1.34,4.84,1.97,7.086
		c5.698,20.394,8.84,31.626,5.824,52.708c-1.324,9.248-2.651,20.103-3.331,31.84c-0.137,2.349-0.247,4.733-0.312,7.163
		c-0.405,9.614-0.035,18.969,0.867,28.358c0.181,1.878,0.383,3.758,0.604,5.643c0.167,6.86,0.946,13.589,2.275,20.15
		c0.44,2.187,0.943,4.355,1.504,6.505c7.486,22.309,20.868,41.715,31.491,62.243c1.321,1.897,2.667,3.742,4.033,5.539
		c10.926,14.378,23.026,25.782,36.132,34.042c1.819,1.148,3.659,2.234,5.518,3.258c7.396-0.942,14.201-3.11,20.349-6.28
		c2.055-1.058,4.044-2.224,6.05-3.463c3.056-2.135,6.162-4.285,9.256-6.488c1.548-1.099,3.097-2.211,4.633-3.341
		c13.117-10.331,28.507-19.7,35.364-35.518c0.902-1.938,1.7-3.926,2.408-5.96c4.965-14.218,5.562-30.571,7.542-45.774
		c0.331-2.391,0.636-4.788,0.918-7.19c0.844-7.208,1.475-14.452,1.95-21.703c0.314-2.327,0.606-4.655,0.859-6.984
		c1.266-11.652,1.627-23.348-0.33-35.027c-0.179-2.126-0.414-4.238-0.718-6.339c-0.606-4.207-1.48-8.402-2.676-12.574
		c-0.371-2.236-0.714-4.427-1.063-6.625c-0.328-2.199-0.662-4.413-0.998-6.643c-2.009-8.698-2.009-16.728-0.334-24.679
		c0.294-1.777,0.65-3.567,1.05-5.399c1.213-5.5,2.854-11.397,4.816-18.447c0.541-1.946,1.104-3.974,1.688-6.102l0.547-1.994
		c0.039-0.315,0.108-0.662,0.227-1.069C180.924,1.945,174.717-0.571,169.014,2.114 M6.806,9.629
		c-0.146-2.014,2.198-1.817,3.945-1.131c0,0-0.004-0.017-0.004-0.021c4.022,1.692,8.351,3.147,12.83,4.411
		c4.884,6.846,5.846,10.901,5.841,17.102c-0.003,8.329-2.294,14.359-8.461,22.251c-2.329,2.985-4.478,6.402-6.422,10.021
		C16.078,43.539,12.883,31.744,6.806,9.629 M10.939,142.428c0.623,1.44,1.321,2.815,2.076,4.142
		c3.711,4.765,6.908,9.786,9.614,15.023c0.9,1.746,1.748,3.517,2.539,5.308c6.235,14.286,9.579,29.007,11.59,44.397
		c-6.693-13.383-16.729-24.758-20.739-39.309c-0.638-2.025-1.201-4.076-1.706-6.143c-1.507-6.211-2.479-12.58-2.837-19.098
		C11.292,145.307,11.119,143.867,10.939,142.428 M62.957,247.294c-2.628-7.375-4.513-15.863-5.86-24.393
		c-0.336-2.132-0.638-4.267-0.897-6.396c-1.376-12.567-2.044-25.95-2.448-38.572c-0.015-2.117-0.007-4.174,0.014-6.156
		c0.041-3.96,0.149-7.624,0.302-10.88c0.089-1.954,0.196-3.761,0.3-5.399c0.457-5.091,0.457-11.115,3.135-16.466
		c1.003-1.674,2.676-2.175,4.455-2.086c10.267,2.086,14.948,10.784,20.97,17.477c1.675,1.672,3.682,2.843,5.773,3.261
		c2.092,0.419,4.274,0.076,6.313-1.274c7.989-5.334,12.427-16.744,20.605-15.598c2.667,0.373,4.602,1.364,6.051,2.772
		c2.284,4.04,4.003,8.292,5.263,12.687c0.63,2.195,1.146,4.426,1.557,6.688c1.317,6.396,1.887,12.787,1.952,19.151
		c0.021,2.124,0.781,9.251,0.71,11.399c-1.184,36.021-2.034,47.12-13.378,59.727c-1.027,1.241-2.2,2.395-3.542,3.44
		c-1.337,1.045-2.843,1.985-4.535,2.802c0-2.789-0.052-5.628-0.141-8.492c-0.043-1.43-0.095-2.869-0.15-4.306
		c-1.076-12.624,2.267-30.022-11.858-36.591c-1.497-0.689-3.101-1.211-4.744-1.555c-6.57-1.36-13.796,0.201-17.627,5.778
		c-1.006,1.584-1.859,3.555-2.465,6.007c-0.604,2.453-0.963,5.386-0.984,8.894h-0.005v0.28v0.023v25.713
		C68.689,252.709,65.764,250.061,62.957,247.294 M89.916,267.777c-1.344-0.739-2.662-1.499-3.944-2.28
		c-1.925-1.173-3.793-2.403-5.625-3.681c-1.833-1.279-3.632-2.606-5.392-3.982v-28.318h0.007c0-1.648,0.169-3.152,0.594-4.478
		c0.427-1.326,1.112-2.475,2.147-3.419c4.196-2.771,8.777-3.577,13.012-2.839c2.117,0.369,4.147,1.122,6.003,2.216
		c8.264,5.031,10.271,15.066,9.81,23.431c0,1.52-0.074,3.036-0.221,4.528c-0.438,4.477-1.521,8.731-3.182,12.216
		c-1.312,1.485-3.594,3.493-6.071,4.082C94.42,266.339,92.343,266.589,89.916,267.777 M167.816,170.124
		c-1.518,8.291-1.526,17.119-2.147,25.541c-0.153,2.104-0.348,4.187-0.613,6.227c-0.198,1.68-0.457,3.339-0.788,4.969
		c-0.334,1.627-0.742,3.223-1.239,4.777c-1.84,6.357-5.854,11.71-11.208,16.396c6.692-10.039,2.889-20.33,1.675-32.488
		c-0.167-2.062-0.315-4.121-0.407-6.181c-0.279-6.182-0.089-12.363,1.422-18.493c0.445-1.815,0.994-3.608,1.662-5.371
		c0.668-1.759,1.46-3.488,2.385-5.176c0.848-1.757,1.762-3.491,2.728-5.203c2.903-5.133,6.292-10.068,9.97-14.753
		c-2.009,8.031-2.676,16.06-3.014,24.414C168.141,166.573,168.009,168.361,167.816,170.124 M133.521,222.229
		c1.594-26.15,1.08-44.701-0.646-55.498c-0.238-1.489-0.215-4.101-1.08-7.99c-0.983-4.425-3.178-9.89-4.303-14.129
		c-0.514-1.615-1.126-3.183-1.856-4.732c-1.466-3.103-3.4-6.141-5.932-9.373c-0.756-0.718-1.831-2.035-3-3.27
		c-1.168-1.236-2.427-2.39-3.541-2.779c-1.674-0.669-3.146-1.388-4.441-2.195c-3.896-2.419-6.231-5.61-7.763-10.517
		c-0.554-1.79-1.041-3.64-1.443-5.502c-0.805-3.726-1.275-7.505-1.275-10.974c0-0.844,0.003-2.098,0.004-3.666
		c0.798,1.072,1.781,2.051,2.899,2.941c1.12,0.895,2.379,1.703,3.736,2.459c18.663,9.161,53.434,20.869,54.711,19.826
		c2.535-2.076,13.56-18.196-8.278-50.794c-0.966-1.444-2.158-2.728-3.291-4.035c-2.264-2.61-4.655-5.066-7.076-7.332
		c-1.716-1.569-3.496-3.059-5.311-4.458c-11.89-7.536-26.611-8.875-38.78-17.801c-0.528,0.229-0.871,0.75-0.871,1.326l-0.511-0.002
		c0,0-0.003,1.583-0.011,4.202h0.344v50.807c0,3.371,0.067,9.869,0.725,16.999c0.222,2.378,0.509,4.824,0.889,7.254
		c0.899,6.63,2.392,11.341,7.076,16.695c1.338-2.008,4.19-2.63,6.869-1.963c2.006,0.668,3.681,3.273,4.362,5.292
		c-8.04,0.658-13.394,8.021-19.838,11.241c-1.611,0.804-3.29,1.337-5.095,1.419c-1.808,0.08-3.742-0.291-5.86-1.296
		c-7.361-4.014-13.384-11.375-22.751-11.375c2.008-4.685,7.362-4.685,11.376-2.007c3.345-5.353,6.022-11.375,6.833-18.012
		c0.344-2.259,0.613-4.541,0.826-6.765c0.64-6.675,0.75-12.848,0.77-16.496c-0.026-16.224-0.12-55.994-0.12-55.994
		c-0.001-0.576-0.345-1.095-0.869-1.324c-0.53-0.227-1.146-0.12-1.566,0.273c-5.696,5.356-12.124,7.272-18.929,9.302
		c-6.107,1.819-12.42,3.702-18.292,8.226C29.194,60.243,18.074,74.907,17.773,90.826c-0.04,2.275,0.137,4.576,0.563,6.888
		c1.021,5.184,3.03,9.866,6.376,13.883c2.678-4.017,7.36-6.024,12.047-7.361c0.668,10.037-6.024,17.398-7.362,26.766
		c-1.338,5.353,4.015,9.368,9.368,8.031c4.685-2.009,6.689-6.692,5.352-11.377c-3.343-7.361-5.352-15.39-6.689-23.419
		c5.354,0.669,10.036-1.338,15.206-1.345c1.555-0.224,3.32-0.515,5.196-0.89c7.499-1.505,16.742-4.383,21.269-9.763
		c0.002,1.263,0.002,2.31,0.002,3.032c0,6.935-1.877,15.117-4.562,21.625c-0.672,1.625-1.393,3.148-2.149,4.519
		c-0.755,1.371-1.543,2.592-2.348,3.617c-1.765-0.784-3.964-0.469-6.11,0.621c-11.783,7.357-12.454,22.749-12.765,35.228
		c-0.085,1.865-0.159,3.855-0.212,5.953c-0.046,1.747-0.078,3.567-0.098,5.452c-0.018,1.887-0.022,3.834-0.008,5.834
		c-0.041,15.114,1.968,30.503,3.483,45.837c0.351,2.184,0.734,4.341,1.154,6.464c0.836,4.241,1.806,8.334,2.929,12.19
		c-2.422-2.598-4.751-5.273-6.989-8.009c-1.12-1.368-2.214-2.75-3.286-4.147c-12.72-17.817-9.375-41.239-17.548-61.179
		c-0.678-2.1-1.409-4.181-2.208-6.24c-3.19-8.238-7.418-16.107-13.039-23.334c-1.227-1.897-2.193-3.812-2.952-5.742
		c-3.79-9.648-2.376-19.685-2.244-29.709c0.114-2.441,0.271-4.828,0.453-7.171c0.717-9.375,1.806-18.07,2.892-25.663
		c0.026-0.193,0.047-0.372,0.072-0.562c2.639-6.112,5.923-12.033,9.672-16.834c6.61-8.462,9.069-14.976,9.073-24.029
		c0.005-6.166-1.05-10.491-4.483-15.978c24.312,6.071,51.914,6.797,61.958,6.841c2.012-0.009,4.724-0.049,7.904-0.191
		c18.026-1.409,36.092-4.084,54.158-6.762c-5.352,6.692-5.352,16.729-3.578,24.457c0.622,2.625,1.566,5.129,2.915,7.686
		c5.889,6.948,10.597,14.653,14.043,22.86c0.864,2.052,1.649,4.136,2.376,6.247c1.214,4.563,2.475,9.095,3.536,13.624
		c0.534,2.266,1.018,4.532,1.42,6.805c0.703,7.319,2.04,15.348,1.891,22.474c-0.16,2.136-0.392,4.261-0.69,6.374
		c-1.503,4.421-3.771,8.336-6.33,12.074c-1.279,1.869-2.631,3.695-3.999,5.521c-1.779,2.052-3.382,4.191-4.813,6.407
		c-1.435,2.214-2.695,4.507-3.8,6.856c-0.877,2.068-1.61,4.159-2.227,6.27c-0.615,2.11-1.107,4.241-1.499,6.386
		c-1.385,6.985-1.212,14.346-0.807,21.748c0.138,2.469,0.719,10.45,0.873,12.951c2.816,17.592-5.359,39.444-26.104,46.805
		C128.967,246.56,129.203,243.175,133.521,222.229 M127.387,63.429c-0.93-0.475-2.202-0.917-3.694-1.354
		c-7.466-2.186-20.497-4.289-24.817-10.273V36.862c1.394,1.073,2.819,1.992,4.273,2.795c6.545,4.355,15.242,4.355,22.199,8.05
		c1.463,0.599,2.913,1.271,4.34,2.059c1.424,0.786,2.823,1.685,4.186,2.736c1.558,1.198,3.052,2.44,4.483,3.718
		c1.205,1.178,2.411,2.392,3.604,3.641c1.198,1.247,2.382,2.53,3.543,3.847c9.661,13.099,23.044,32.503,13.676,48.562
		c-2.006-18.736-12.712-36.134-27.931-46.678C130.02,64.837,128.735,64.116,127.387,63.429 M112.191,88.284
		c16.208,6.589,31.601,14.62,44.313,25.995c-18.735-7.361-38.141-12.045-54.837-23.206c-1.764-1.776-2.791-3.811-2.791-6.113v-6.746
		c0.856,1.781,2.069,3.305,3.576,4.627c1.505,1.321,3.306,2.446,5.348,3.469C109.159,86.995,110.631,87.652,112.191,88.284
		 M50.461,63.429c-13.465,6.863-20.858,16.914-24.278,26.398c-0.683,1.895-1.208,3.77-1.59,5.59c-1.22,3.465-0.55,6.812-0.55,10.155
		c-2.008-2.675-2.008-6.021-3.055-9.297c-0.247-1.554-0.374-3.119-0.385-4.692c-0.029-4.728,0.999-9.537,3.09-14.409
		c3.738-8.715,10.941-17.477,20.281-24.671c5.447-4.199,11.5-6.003,17.354-7.75c5.948-1.772,12.071-3.599,17.648-7.891v14.937
		C73.792,58.983,56.063,60.574,50.461,63.429 M78.978,78.213v6.748c0,7.674-11.438,12.366-23.409,14.531
		c-2.396,0.435-4.813,0.767-7.162,1.004c-8.306,1.063-16.335,0.394-22.356,6.417c3.346-4.683,7.36-9.369,13.06-11.692
		c2.564-1.275,5.081-2.166,7.182-2.551c7.303-1.342,10.787-1.678,19.43-4.658C71.868,85.893,76.694,82.961,78.978,78.213
		 M172.639,10.154c-0.015,0.062-0.02,0.113-0.029,0.172c-2.227,8.094-4.053,14.803-5.386,21c-0.447,2.065-0.839,4.073-1.172,6.057
		c-0.822,7.968-1.489,16.667-0.15,24.697c-3.346-5.353-7.36-10.708-11.05-15.468c-1.106-1.811-1.973-3.565-2.647-5.333
		c-3.702-9.311-2.363-20.686,3.912-28.454c2.276-0.614,4.489-1.295,6.639-2.033c2.15-0.737,4.239-1.528,6.256-2.38
		C170.875,7.75,173.254,7.665,172.639,10.154"/>
	<path d="M118.104,218.512c4.942-9.217,4.942-19.923,2.06-30.279c-0.569-1.948-1.267-3.854-2.08-5.701
		c-1.623-3.694-3.708-7.155-6.15-10.21c-1.463-1.722-3.095-3.279-4.903-4.65c-1.811-1.37-3.796-2.553-5.958-3.511
		c-1.303-0.549-2.688-0.976-4.153-1.268c-1.465-0.291-3.012-0.444-4.644-0.444c-2.01-0.163-4.104-0.204-6.2-0.07
		c-6.277,0.398-12.574,2.365-16.681,7.223c-1.386,1.457-2.621,3.169-3.637,5.164c-1.017,1.996-1.811,4.277-2.315,6.879
		c-2.954,15.227-1.214,21.192,0.827,32.629c0.894-3.34,2.595-6.319,4.904-8.806c1.158-1.242,2.468-2.362,3.907-3.343
		c5.188-3.083,11.253-4.351,17.262-4.041c2.003,0.103,3.999,0.383,5.955,0.828c2.449,1.007,5.047,2.052,7.576,3.316
		c4.452,3.053,10.474,5.729,12.815,12.051C117.388,215.691,117.866,217.101,118.104,218.512"/>
</g>
</svg>
