<?xml version="1.0" encoding="utf-8"?>
<!-- Generator: Adobe Illustrator 16.0.3, SVG Export Plug-In . SVG Version: 6.00 Build 0)  -->
<!DOCTYPE svg PUBLIC "-//W3C//DTD SVG 1.1//EN" "http://www.w3.org/Graphics/SVG/1.1/DTD/svg11.dtd">
<svg version="1.1" id="Layer_1" xmlns="http://www.w3.org/2000/svg" xmlns:xlink="http://www.w3.org/1999/xlink" x="0px" y="0px"
	 width="318.375px" height="271.129px" viewBox="0 0 318.375 271.129" enable-background="new 0 0 318.375 271.129"
	 xml:space="preserve">
<g id="csTzimisce">
</g>
<g id="wmTzimisce3">
</g>
<g id="csSalubri">
</g>
<g id="wmSalubri2">
</g>
<g id="csRavnos2">
</g>
<g id="wmRavnos2">
</g>
<g id="csBanuHaqim_x5F_02">
</g>
<g id="logoVtM">
</g>
<g id="Dark_Pack">
</g>
<g id="Dark_Pack_2">
</g>
<g id="csAnarch">
	<g id="csCamarilla">
		<g id="csDuskborn">
			<g id="logoVtM_x5F_DE_1_">
			</g>
			<g id="logoVtM_x5F_IT">
			</g>
			<g id="logoVtM_x5F_PL">
			</g>
			<g id="logoVtM_x5F_PT">
			</g>
			<g id="logoVtM_x5F_FR">
			</g>
			<g id="logoVtM_x5F_ES">
			</g>
			<g id="logoVtM_x5F_DE">
			</g>
		</g>
	</g>
</g>
<path d="M199.042,65.317c-3.021,3.739-15.304,8.326-17.316,13.731c-8.389-5.415-19.923-12.702-28.348-12.846
	c14.992-5.097,19.932-3.989,28.578-0.653c6.74,0.412,17.901-0.482,23.394-2.431C203.816,63.883,202.057,61.578,199.042,65.317
	 M156.976,68.592l-0.002-0.027c-0.097-0.192,0.081-0.349,0.209-0.163L156.976,68.592z M305.001,23.945
	c3.763-5.692-1.705-11.394-3.317-13.466c-1.611-2.072-2.862-9.219-4.911-10.271c-2.051-1.055-8.062,2.145-8.61,3.793
	c-0.548,1.646-6.333,6.563-10.89,12.038c-43.853,12.663-36.027,6.544-47.604,18.519c0,0-3.398,0.843-5.936,1.19
	c-3.979,0.545-6.713,3.624-10.513,6.646c0,0-2.922-4.117-3.923-5.052c-1.21-1.125-6.423-5.236-11.3-3.098
	c-5.24,2.302-44.663,3.688-44.663,3.688s-12.058-3.822-26.576-1.477c-1.327,0.213-7.261,2.072-8.533,2.389
	c-1.863,0.461-3.856,0.006-5.526,0.719c0,0,13.84,3.793,16.333,7.021c-2.149-0.083-4.661,3.253-9.214,4.726
	c-14.38-3.949-27.04-3.737-43.447-4.128c-4.852-0.115-14.427,1.718-25.867,5.195c-6.157,1.872-8.612-4.218-16.269,0.128
	c-6.794,3.854-25.402,11.295-22.614,11.905c8.436,1.841,15.856-1.671,12.474,1.315c-6.036,5.321-18.209,8.401-23.946,18.348
	c6.143-3.129,12.562-4.273,18.809-2.387c6.999,2.117,11.921,4.623,17.244,5.748c11.357,2.403,17.554,1.123,26.189,4.525
	c4.728,1.863,12.342,1.347,17.033,2.058c3.374,0.51,3.302,6.648,13.462,12.614c-7.123-1.214-15.692-8.155-17.979-7.923
	c-8.431,10.434-12.468,11.082-32.561,17.556c-6.617,2.13-13.975,6.681-23.629,10.322c23.573,2.275,26.852,9.14,40.9,7.534
	c-14.177,9.605-24.23,26.277-42.973,32.077c9.97,0.729,29.624-4.436,38.272-8.848c-1.694,3.763-12.147,12.832-16.951,15.396
	c4.277-0.326,17.485,1.132,21.671-7.406c-5.526,11.266-19.859,20.627-35.374,28.042c7.44-0.488,17.734-3.727,27.988-10.681
	c-5.268,9.105-24.269,26.753-41.489,35.848c12.111-2.729,19.396-1.334,25.729-4.021c6.158-2.619,14.56-6.922,19.701-10.995
	c6.839-5.415,11.62-15.152,25.705-26.172c-16.265,23.682-21.73,34.816-32.123,42.814c2.985-0.63,12.312-0.086,16.443-2.83
	c-1.849,5.001-20.229,22.881-38.373,35.107c13.782-4.16,40.168-21.98,48.636-30.211c-0.192,1.617-5.913,15.278-12.348,22.595
	c5.142-2.882,23.171-16.926,26.392-22.757c3.738-6.763,31.823-43.934,35.878-48.785c-0.354,2.931-28.877,50.145-29.756,59.63
	c-0.423,4.578-5.951,12.478-7.095,17.66c-1.503,6.821-2.077,13.883-5.601,20.542c8.629-5.14,33.6-42.078,44.05-56.313
	c-0.497,6.243-3.577,15.637-4.537,23.822c-0.403,3.424-1.609,12.081-3.827,15.916c-1.994,3.449-2.358,9.96-2.916,14.06
	c6.438-5.754,17.84-16.499,21.77-23.259c2.058-3.541,8.367-11.558,11.012-20.875c2.506,3.983,2.542,3.431,3.3,6.525
	c0.608,2.478-1.771,6.706-1.804,10.731c-0.047,5.665-1.388,10.916-1.065,13.601c9.773-11.349,14.153-34.465,16.738-47.689
	c0.497,11.073,2.525,14.227,3.165,17.462c0.813,4.103-0.277,10.342-0.544,20.35c10.232-21.007,11.221-21.566,12.247-35.353
	c2.545,5.995,2.709,18.096,3.398,26.305c0.346,4.111,10.407,10.106,14.834,11.904c-5.705-12.158-5.912-39.998-5.912-39.998
	s-0.945-16.937,4.241-22.894c2.216-2.542,7.998-2.333,11.323-4.438c11.116-7.044,25.867-5.294,30.535-1.155
	c3.729,3.309,7.321,10.22,0.986,16.184c6.403-2.935,13.878-7.061,20.605-13.406c0,0,3.074,8.956-0.58,16.002
	c5.217-5.761,13.966-5.838,18.283-12.488c3.146-4.842,11.307,8.843,12.958,8.938c1.215,0.072,9.024-5.021,10.583-6.179
	c1.561-1.155,3.118-14.104,7.195-16.895c4.077-2.792,5.453-5.626,7.219-7.453c1.768-1.827,0.764-2.558,0.454-3.285
	c-0.307-0.726-3.536-1.936-5.538-1.977c-1.998-0.038-2.918,0.602-5.328,0.171c8.771-10.032,4.397-26.32-1.156-33.525
	c0.411,7.02-3.535,17.124-8.771,24.195c-1.631,2.201-1.535-1.773-6.039,4.965c-0.687,1.027-5.297-2.89-10.67-1.946
	c2.688-8.787-1.599-23.046-8.249-29.827c0.299,13.354-1.987,21.768-4.05,22.903c-0.877,0.482-3.069,1.188-4.429,5.412
	c0,0-4.719-2.561-6.881-3.165c-2.163-0.602-4.207-1.397-5.35-5.039c-1.138-3.642-15.677-6.984-19.649-4.922
	c-6.9,3.583-11.928,1.185-17.662,2.524c-4.961,1.159-9.924,6.351-11.516,3.114c-0.864-4.504,2.728-17.016,5.014-27.664
	c1.309-6.092,0.681-12.513,2.363-14.096c7.44-6.997,27.133-9.528,30.449-11.537c3.315-2.009,9.926-8.038,14.32-8.482l10.119-11.003
	c1.934,7.806,5.885,5.296,5.996,7.323c0.461,8.315,3.694,17.539,2.378,21.156c8.828-6.843,9.927-36.793,9.927-36.793
	c6.036,0.13,12.207-2.416,14.661-6.986c1.945,5.272,3.77,2.783,5.051,4.184c5.997,6.555,3.761,13.188,1.846,19.507
	c15.766-16.726,10.22-30.222,5.323-37.167c0,0,1.375-6.156,0.176-11.445C309.608,29.401,307.687,24.669,305.001,23.945"/>
</svg>
