<?xml version="1.0" encoding="utf-8"?>
<!-- Generator: Adobe Illustrator 16.0.3, SVG Export Plug-In . SVG Version: 6.00 Build 0)  -->
<!DOCTYPE svg PUBLIC "-//W3C//DTD SVG 1.1//EN" "http://www.w3.org/Graphics/SVG/1.1/DTD/svg11.dtd">
<svg version="1.1" id="Layer_1" xmlns="http://www.w3.org/2000/svg" xmlns:xlink="http://www.w3.org/1999/xlink" x="0px" y="0px"
	 width="270.373px" height="276.373px" viewBox="0 0 270.373 276.373" enable-background="new 0 0 270.373 276.373"
	 xml:space="preserve">
<g id="csTzimisce">
</g>
<g id="wmTzimisce3">
</g>
<g id="csSalubri">
</g>
<g id="wmSalubri2">
</g>
<g id="csRavnos2">
</g>
<g id="wmRavnos2">
</g>
<g id="csBanuHaqim_x5F_02">
</g>
<g id="logoVtM">
</g>
<g id="Dark_Pack">
</g>
<g id="Dark_Pack_2">
</g>
<g id="csAnarch">
	<g id="csCamarilla">
		<g id="csDuskborn">
			<g id="logoVtM_x5F_DE_1_">
			</g>
			<g id="logoVtM_x5F_IT">
			</g>
			<g id="logoVtM_x5F_PL">
			</g>
			<g id="logoVtM_x5F_PT">
			</g>
			<g id="logoVtM_x5F_FR">
			</g>
			<g id="logoVtM_x5F_ES">
			</g>
			<g id="logoVtM_x5F_DE">
			</g>
		</g>
	</g>
</g>
<g>
	<path d="M80.553,213.152c15.113-5.084,17.991-9.811,23.617-20.332l22.093,4.932c-6.897,13.27-27.376,21.714-31.974,24.146
		c-0.1,1.243,0.61,2.736,2.354,4.02c3.005,2.213,7.428,4.474,14.741,3.035c-8.487,6.078-21.358,6.102-27.778-0.599
		c-47.825,11.944-68.79,20.701-82.386,46.918c3.032-25.769,14.998-33.28,28.465-43.316c-2.985-9.674,2.312-23.435,13.085-26.609
		c-5.635,4.88-5.837,17.713-3.873,20.419C40.078,227.398,62.353,219.274,80.553,213.152"/>
	<path d="M180.044,206.517c16.975-18.665,33.593-27.557,45.568-48.668c-21.206,23.361-55.132,33.033-86.734,21.845
		c-15.96-5.649-29.033-15.81-38.292-28.54c7.121,23.083,43.388,56.814,51.925,63.332c7.091,5.411,12.215,19.002,14.517,19.967
		C162.75,232.659,175.411,211.609,180.044,206.517"/>
	<path d="M67.294,50.088c-0.001,0.076-0.572,6.174-0.572,6.248c-1.273,32.696,6.732,55.367,23.9,76.614
		c-6.804-17.417-7.638-35.196-0.907-54.203c11.222-31.696,32.959-51.076,71.638-54.222C129.047,14,102.826,15.128,79.35,28.17
		c-3.688,1.653-15.676,5.043-16.42,3.345c-1.04,2.938,4.687,10.939,4.477,15.997C67.384,47.931,67.416,49.688,67.294,50.088
		C66.396,53.01,67.316,49.624,67.294,50.088"/>
	<path d="M212.291,9.534c-22.93-4.79-32.469,2.124-58.397,8.245c23.223,2.991,35.389,11.013,49.515,25.914
		c25.297,14.103,39.675,42.235,42.642,74.984c6.035-40.869,3.529-73.312-9.152-97.155c-1.852-3.925-7.893-16.969-11.957-20.421
		C225.532,3.715,218.2,9.469,212.291,9.534"/>
	<path d="M141.497,173.701c2.979,1.054,5.981,1.906,8.993,2.569c-22.005-15.148-32.542-34.358-35.873-51.481
		c-8.535-6.735-17.759-30.44-18.388-42.304C83.176,121.436,105.148,160.83,141.497,173.701"/>
	<path d="M165.796,27.826c-26.08,4.237-49.201,17.652-61.948,39.636c27.344-23.232,58.646-32.112,100.119-8.419
		C191.678,38.255,177.708,30.016,165.796,27.826"/>
	<path d="M240.754,132.131c-2.824-31.649-10.25-59.175-33.869-78.975c42.951,60.611-12.089,112.925-37.832,123.358
		C201.947,177.794,236.116,141.813,240.754,132.131"/>
	<path d="M187.995,133.226c10.731-14.663,8.154-33.237,0.602-44.048c0.799,13.167-1.782,19.26-5.269,24.794
		c-9.544,4.007-19.666,10.079-35.587,1.384C162.378,130.998,175.408,134.506,187.995,133.226"/>
	<path d="M167.373,137.997c-22.922-7.335-29.787-24.542-29.787-24.542s-1.938-13.104,4.039-29.984
		c-10.716,6.864-20.146,28.77-21.218,37.343C129.235,129.64,145.908,140.605,167.373,137.997"/>
	<path d="M103.104,75.677c-2.689,11.589,4.595,26.553,12.609,36.612c3.698-20.315,18.693-35.593,40.657-47.038
		C138.137,61.853,120.42,64.147,103.104,75.677"/>
	<path d="M165.307,86.739c4.864,0.497,16.51,9.862,18.432,15.581c2.951-16.678-5.146-25.756-16.084-33.714
		c-12.288,4.039-22.438,15.978-24.459,30.031C151.98,89.217,160.445,86.243,165.307,86.739"/>
	<path d="M45.083,161.129c6.289,5.18,32.013,19.087,77.82,30.506c-16.418-15.656-26.198-28.032-32.755-48.675
		c-15.163-13.494-24.598-37.728-26.588-55.05c-5.803,10.132-8.734,40.48-9.847,53.01C52.602,153.452,48.944,160.651,45.083,161.129"
		/>
	<path d="M269.152,171.513c-3.387-0.042-5.32-4.245-5.626-14.486c0.877-22.671-2.743-45.072-8.5-66
		c-0.929,18.231-1.551,41.214-17.861,59.443c-9.159,19.547-19.38,35.035-43.817,49.066c17.112,0.411,36.548-4.25,57.187-15.91
		C258.182,179.758,266.968,174.557,269.152,171.513"/>
	<path d="M208.471,69.138c-8.168-7.919-44.24-29.594-73.62-11.621c9.225-1.209,39.286-2.53,58.812,24.669
		c9.706,13.523,9.285,34.627,3.112,46.302C215.967,106.539,217.594,84.673,208.471,69.138"/>
	<path d="M214.244,113.775c-25.165,37.044-55.143,49.69-89.321,17.563c4.6,18.262,24.188,37.181,35.718,42.935
		C177.661,167.235,209.354,138.664,214.244,113.775"/>
</g>
</svg>
