<?xml version="1.0" encoding="utf-8"?>
<!-- Generator: Adobe Illustrator 16.0.3, SVG Export Plug-In . SVG Version: 6.00 Build 0)  -->
<!DOCTYPE svg PUBLIC "-//W3C//DTD SVG 1.1//EN" "http://www.w3.org/Graphics/SVG/1.1/DTD/svg11.dtd">
<svg version="1.1" id="Layer_1" xmlns="http://www.w3.org/2000/svg" xmlns:xlink="http://www.w3.org/1999/xlink" x="0px" y="0px"
	 width="215.854px" height="214.553px" viewBox="0 0 215.854 214.553" enable-background="new 0 0 215.854 214.553"
	 xml:space="preserve">
<g id="csTzimisce">
</g>
<g id="wmTzimisce3">
</g>
<g id="csSalubri">
</g>
<g id="wmSalubri2">
</g>
<g id="csRavnos2">
</g>
<g id="wmRavnos2">
</g>
<g id="csBanuHaqim_x5F_02">
</g>
<g id="logoVtM">
</g>
<g id="Dark_Pack">
</g>
<g id="Dark_Pack_2">
</g>
<g id="csAnarch">
	<g id="csCamarilla">
		<g id="csDuskborn">
			<g id="logoVtM_x5F_DE_1_">
			</g>
			<g id="logoVtM_x5F_IT">
			</g>
			<g id="logoVtM_x5F_PL">
			</g>
			<g id="logoVtM_x5F_PT">
			</g>
			<g id="logoVtM_x5F_FR">
			</g>
			<g id="logoVtM_x5F_ES">
			</g>
			<g id="logoVtM_x5F_DE">
			</g>
		</g>
	</g>
</g>
<g>
	<path d="M97.704,213.341c-53.193,0-96.469-43.278-96.469-96.471c0-53.194,43.275-96.47,96.469-96.47
		c53.19,0,96.468,43.275,96.468,96.47C194.171,170.063,150.894,213.341,97.704,213.341 M97.704,31.796
		c-46.911,0-85.073,38.165-85.073,85.074c0,46.91,38.162,85.074,85.073,85.074c46.908,0,85.073-38.164,85.073-85.074
		C182.777,69.961,144.612,31.796,97.704,31.796"/>
	<path d="M154.387,173.554H41.019V60.187h113.368V173.554z M157.808,56.765H37.598v120.21h120.21V56.765z"/>
	<rect x="72.648" y="91.814" width="50.11" height="50.11"/>
	<path d="M97.704,62.207c30.141,0,54.66,24.522,54.66,54.662c0,30.141-24.52,54.664-54.66,54.664
		c-30.142,0-54.663-24.523-54.663-54.664C43.041,86.729,67.562,62.207,97.704,62.207 M97.704,59.78
		c-31.478,0-57.089,25.612-57.089,57.089c0,31.48,25.611,57.089,57.089,57.089c31.479,0,57.089-25.608,57.089-57.089
		C154.792,85.393,129.182,59.78,97.704,59.78"/>
	<polygon points="137.636,1.212 214.62,2.304 213.528,79.29 	"/>
</g>
</svg>
