<?xml version="1.0" encoding="UTF-8" standalone="no"?>
<!-- Created with Inkscape (http://www.inkscape.org/) -->

<svg
   version="1.1"
   id="svg186"
   width="530"
   height="320"
   viewBox="0 0 530 320"
   sodipodi:docname="puppers.png"
   inkscape:version="1.2.2 (732a01da63, 2022-12-09)"
   xmlns:inkscape="http://www.inkscape.org/namespaces/inkscape"
   xmlns:sodipodi="http://sodipodi.sourceforge.net/DTD/sodipodi-0.dtd"
   xmlns="http://www.w3.org/2000/svg"
   xmlns:svg="http://www.w3.org/2000/svg">
  <defs
     id="defs190" />
  <sodipodi:namedview
     id="namedview188"
     pagecolor="#ffffff"
     bordercolor="#000000"
     borderopacity="0.25"
     inkscape:showpageshadow="2"
     inkscape:pageopacity="0.0"
     inkscape:pagecheckerboard="0"
     inkscape:deskcolor="#d1d1d1"
     showgrid="false"
     inkscape:zoom="2.54375"
     inkscape:cx="265.15971"
     inkscape:cy="160"
     inkscape:window-width="1920"
     inkscape:window-height="1017"
     inkscape:window-x="1912"
     inkscape:window-y="-8"
     inkscape:window-maximized="1"
     inkscape:current-layer="g192" />
  <g
     inkscape:groupmode="layer"
     inkscape:label="Image"
     id="g192">
    <path
       style="fill:#000000"
       d="m 457.38944,313.06616 c -4.50995,-1.59939 -7.67821,-4.86568 -6.83956,-7.05117 1.76534,-4.60039 16.48934,-1.76818 19.43653,3.73869 2.34765,4.38663 -4.49461,6.18587 -12.59697,3.31248 z m -365.514221,-5.3041 c -3.158023,-2.55721 -2.943816,-6.96876 0.481434,-9.91503 2.594402,-2.23161 2.668792,-2.55054 1.645925,-7.0559 -0.589212,-2.59525 -4.6954,-23.39364 -9.124863,-46.21864 -11.465048,-59.07933 -10.004238,-53.69872 -14.154364,-52.1348 -2.536413,0.95581 -6.783526,-0.1878 -8.040373,-2.16501 -1.374402,-2.16215 -0.830561,-6.35671 1.044138,-8.05329 2.563684,-2.32011 17.74215,-5.51198 29.662319,-6.23768 18.291035,-1.11356 30.803945,2.76628 39.457285,12.23442 6.7713,7.40887 8.54587,12.99562 8.53063,26.85636 -0.0114,10.33205 -0.2067,11.39917 -3.21693,17.57366 -2.0127,4.12841 -5.22305,8.48242 -8.63051,11.70505 -5.58556,5.28259 -16.78757,11.36674 -24.39047,13.2472 -2.98866,0.7392 -4.2295,1.55911 -4.18093,2.76263 0.038,0.9413 1.51281,8.91146 3.27738,17.71146 l 3.20831,16 4.23773,0.30824 c 3.18441,0.23162 4.6342,0.91334 5.83285,2.74271 1.89397,2.89056 1.18067,6.94732 -1.47108,8.36649 -1.37169,0.73411 -19.032505,4.08256 -21.532716,4.08256 -0.21999,0 -1.406084,-0.81469 -2.635765,-1.81043 z M 110.3499,242.21922 c 11.82807,-5.41507 18.66037,-15.27027 18.72346,-27.00752 0.0447,-8.31274 -1.6407,-13.95091 -5.476,-18.31913 -5.05891,-5.76186 -10.39179,-7.60374 -23.52935,-8.12662 -6.226792,-0.24783 -11.696979,-0.0552 -12.155977,0.42797 -0.68616,0.72236 2.983142,21.45153 9.070782,51.24402 l 1.09635,5.36545 3.440455,-0.55831 c 1.89225,-0.30707 5.86587,-1.66871 8.83028,-3.02586 z m 153.35831,62.33907 c -10.85738,-1.03816 -12.74661,-1.66579 -13.86447,-4.60601 -1.29624,-3.40937 0.73025,-7.60543 4.0457,-8.37705 3.0265,-0.70437 2.65473,3.19 3.9619,-41.50274 1.73812,-59.42703 2.05832,-64.52022 4.19025,-66.65215 4.10578,-4.10578 9.84785,-1.01695 9.84785,5.29743 0,3.48502 0.005,3.48881 6.34941,4.74986 17.16809,3.41248 26.70687,16.52976 23.73011,32.63254 -2.67406,14.46532 -12.26071,23.24149 -28.32952,25.93448 l -3.75,0.62847 -0.17857,17.45468 c -0.0982,9.60008 -0.21072,18.46719 -0.25,19.70469 -0.0565,1.77937 0.55608,2.31979 2.92857,2.58366 6.55452,0.729 8.81039,7.20383 3.86514,11.09376 -1.44917,1.13992 -3.13667,2.00964 -3.75,1.93271 -0.61333,-0.0769 -4.5717,-0.47038 -8.79637,-0.87433 z m 17.76657,-68.48294 c 7.50993,-4.40112 10.59918,-14.96079 6.57303,-22.46797 -2.01931,-3.76523 -6.97044,-6.80558 -12.55977,-7.7126 l -3.5986,-0.58397 -0.004,4.38084 c -0.002,2.40946 -0.30026,10.1892 -0.6623,17.2883 l -0.65825,12.90746 3.34369,-0.66874 c 1.83903,-0.3678 5.24385,-1.7823 7.56626,-3.14332 z m -77.55016,60.56288 c -2.25621,-4.21577 0.006,-10.06574 3.89175,-10.06574 0.94991,0 1.11495,-1.44736 0.65568,-5.75 -0.33758,-3.1625 -1.95841,-19.7 -3.60186,-36.75 -1.64346,-17.05 -3.69676,-38.05109 -4.56291,-46.66909 -1.71053,-17.01944 -1.37057,-19.3027 3.03885,-20.4094 4.77532,-1.19852 8.54331,2.16469 8.54331,7.62554 0,1.59373 0.6971,1.95295 3.7899,1.95295 5.78819,0 15.00425,2.72956 19.57046,5.79626 5.46862,3.67277 9.86817,12.215 10.45262,20.29498 1.05997,14.65396 -7.20353,26.67372 -21.89492,31.84747 -2.70833,0.95377 -5.14448,1.95438 -5.41368,2.22357 -0.47254,0.47255 2.19255,32.01348 3.09153,36.58772 0.35252,1.7937 1.1167,2.25 3.76815,2.25 4.10238,0 6.63594,2.58552 6.63594,6.77204 0,5.15949 -2.69131,6.22796 -15.68732,6.22796 -10.09149,0 -11.34828,-0.198 -12.2775,-1.93426 z m 20.94293,-66.55442 c 5.06294,-2.61815 8.02189,-8.09172 8.02189,-14.83916 0,-3.76088 -0.61972,-6.91268 -1.72816,-8.78911 -2.16536,-3.66566 -8.66195,-6.88305 -13.89835,-6.88305 h -3.99507 l 1.29413,13.75 c 1.92166,20.41751 1.90717,20.36029 4.8722,19.23299 1.35785,-0.51626 3.80286,-1.62851 5.43336,-2.47167 z m 236.42392,58.9795 c -1.56318,-2.38571 -1.44125,-3.33295 2.47781,-19.25 7.95807,-32.32121 19.23705,-75.59071 20.14756,-77.29202 1.37648,-2.57198 5.75309,-3.32265 8.57849,-1.47138 3.04623,1.99597 3.12172,5.84802 0.31926,16.29096 -3.97017,14.79425 -15.18848,58.80348 -17.80033,69.83037 -1.44588,6.10431 -3.24556,11.84181 -3.99929,12.75 -2.18256,2.62981 -7.76073,2.13764 -9.7235,-0.85793 z m -45.01974,-9.98761 c -6.56358,-3.27077 -9.38229,-8.08464 -9.38229,-16.02334 0,-11.16481 3.76285,-17.50916 9.52672,-16.06252 3.95025,0.99145 5.04395,4.53537 3.45009,11.17932 -1.51635,6.32085 -0.91684,8.10644 3.43916,10.24323 5.74244,2.8169 10.40559,-1.07717 11.35275,-9.48037 l 0.5198,-4.61162 -9.07146,-8.62395 c -9.85294,-9.3669 -11.20082,-11.97754 -11.21148,-21.71503 -0.0113,-10.34628 4.22542,-18.95564 11.0388,-22.43157 9.3003,-4.74466 23.88273,-0.18272 27.56173,8.62234 2.25624,5.39995 1.75549,14.08148 -1.1754,20.37807 -2.85798,6.13994 -3.77568,6.985 -7.60928,7.00692 -5.93467,0.0339 -6.98133,-4.29507 -3.36679,-13.925 0.91666,-2.44217 1.39834,-5.50932 1.07041,-6.81589 -0.69075,-2.75217 -6.62389,-5.66459 -9.60942,-4.71702 -4.70569,1.49353 -6.99392,13.65241 -3.55657,18.89846 0.95567,1.45854 4.34082,4.67349 7.52254,7.14432 3.18173,2.47083 6.8674,6.39098 8.19038,8.71143 4.54997,7.98043 2.45343,22.17155 -4.37083,29.58543 -5.25003,5.70364 -15.85668,6.85368 -24.31886,2.63679 z M 369.9922,266.72732 c -6.75905,-1.332 -8.76833,-2.15323 -10.29948,-4.20959 -2.42747,-3.26014 -1.16585,-7.18927 3.00017,-9.3436 2.78694,-1.44118 2.92977,-1.87721 4.02866,-12.2979 3.05806,-28.99968 5.38921,-47.75566 6.20076,-49.89019 0.49519,-1.30244 2.06417,-2.65079 3.5055,-3.01254 3.04155,-0.76338 7.46163,0.9549 7.46163,2.90067 0,1.01723 1.90729,1.32861 7.8346,1.27909 6.97594,-0.0583 8.30079,0.24306 12.08837,2.74956 7.44551,4.9272 11.04316,17.84943 6.0868,21.86285 -4.61721,3.73878 -9.23361,1.0621 -10.36441,-6.00948 -0.74708,-4.672 -2.70863,-6.1837 -8.02385,-6.1837 -2.22941,0 -4.42598,0.82089 -6.02067,2.25 -2.62734,2.35454 -2.58708,2.11264 -7.24094,43.5 -0.54702,4.86472 -0.43512,5.25 1.52488,5.25 2.8451,0 6.11522,3.43707 6.11522,6.42742 0,2.42591 -4.17916,6.66565 -6.38486,6.47741 -0.61333,-0.0523 -4.8939,-0.83984 -9.51238,-1.75 z m -206.68136,-5.05116 c -7.81948,-3.55143 -11.67331,-11.75979 -13.52144,-28.79965 -1.64259,-15.14469 0.0372,-34.98763 3.17915,-37.55402 2.59608,-2.12053 4.8936,-2.22188 7.47976,-0.32996 1.8156,1.32821 1.94209,2.79945 1.95594,22.75 0.0131,18.94532 0.23675,21.87716 2,26.22455 2.51724,6.20637 4.62787,7.69125 7.38535,5.19576 4.42588,-4.00537 7.35595,-21.21794 6.97902,-40.99807 -0.19757,-10.36757 -0.0914,-11.00199 2.14325,-12.81153 2.66434,-2.15744 6.68168,-1.7132 8.72757,0.96511 1.86332,2.43931 1.97745,26.29867 0.18859,39.42586 -1.88872,13.85998 -6.96934,23.42306 -13.92203,26.20498 -5.17486,2.07057 -7.54835,2.01911 -12.59516,-0.27303 z m 155.0786,-1.37012 c -2.79293,-1.55954 -4.75442,-3.74239 -6.5,-7.23355 -6.07221,-12.14441 -2.4142,-45.86545 6.25293,-57.64219 3.4792,-4.72747 9.59444,-7.85781 15.35053,-7.85781 12.77971,0 19.20319,10.94812 16.47204,28.07475 -1.47965,9.27864 -2.56274,9.92525 -16.62501,9.92525 h -11.32794 l -0.68921,4.59593 c -0.81351,5.42491 -0.0713,12.90968 1.65598,16.70076 0.89327,1.96053 1.96933,2.70331 3.91621,2.70331 3.12428,0 5.31131,-2.12073 7.43934,-7.21382 3.42758,-8.20334 13.77412,-5.09749 12.13448,3.64256 -2.42318,12.91663 -17.13926,20.41362 -28.07935,14.30481 z m 19.48469,-52.56888 c -0.0224,-6.80862 -1.72099,-8.49216 -6.82523,-6.7646 -2.16538,0.73289 -7.59725,10.07588 -6.70431,11.53163 0.19172,0.31256 3.31775,0.4174 6.94672,0.23297 l 6.59813,-0.33532 -0.0153,-4.66468 z m 26.01531,-42.05385 c -12.11657,-3.29729 -16,-6.55216 -16,-13.41025 0,-2.96277 0.70504,-4.55945 3.04775,-6.90216 2.71179,-2.7118 3.53852,-2.99243 7.5,-2.54592 4.42464,0.49872 4.45236,0.48244 4.47022,-2.62533 0.01,-1.71994 0.90438,-22.70216 1.98776,-46.627173 1.08339,-23.925 1.9753,-46.09143 1.98203,-49.25873 l 0.0122,-5.75874 -5.32352,0.62568 c -3.90899,0.45942 -6.14543,0.20065 -8.41671,-0.97387 -6.34124,-3.27919 -6.47481,-13.92041 -0.21536,-17.1573 8.47514,-4.382666 35.10588,-6.161899 47.45559,-3.17057 21.49679,5.20693 34.34717,15.91662 41.86819,34.89354 4.64615,11.7231 5.92711,20.50919 5.36016,36.76511 -0.52414,15.028263 -1.63868,20.854123 -6.38865,33.394373 -7.76719,20.50591 -27.06058,38.0171 -47.40359,43.02475 -8.50842,2.09444 -21.67692,1.97417 -29.93611,-0.27341 z m 33.88534,-22.86934 c 12.13636,-5.80942 23.29205,-20.78747 27.73757,-37.24148 2.22805,-8.246623 2.49828,-29.053583 0.48054,-37.000013 -3.42968,-13.50703 -10.15022,-22.5115 -20.43184,-27.37549 -5.13995,-2.43158 -16.33259,-5.29686 -17.22095,-4.4085 -0.73247,0.73247 -5.55993,108.798193 -4.90735,109.854083 0.69469,1.12403 8.15736,-0.86812 14.34203,-3.8286 z M 136.86231,164.5794 C 116.34885,161.31592 97.246125,147.76977 88.131223,130.02315 74.132776,102.76829 71.860072,61.394527 83.13521,39.072477 90.847607,23.803807 106.8935,12.96265 127.66135,8.9891061 c 26.94054,-5.154576 51.22327,5.7235229 58.22868,26.0850909 2.75334,8.00271 2.59323,10.88597 -0.75059,13.51654 -3.01222,2.36971 -8.70685,4.98174 -10.86096,4.98174 -0.7517,0 -3.13153,-3.4875 -5.28852,-7.75 -8.24664,-16.29646 -19.01848,-21.46888 -37.25117,-17.88727 -27.64045,5.42968 -39.250103,27.95165 -33.305115,64.60981 1.778465,10.966393 6.419475,25.546863 10.194465,32.027473 3.99766,6.86288 12.64499,15.37369 18.56604,18.27295 10.86395,5.31955 27.48888,5.74258 41.26113,1.04991 7.21254,-2.45756 14.9327,-10.45508 15.79511,-16.36256 1.14116,-7.81699 -2.03782,-20.78736 -5.87553,-23.97237 -1.4733,-1.22274 -11.61493,0.20268 -16.15285,2.2703 -2.06378,0.94032 -2.40022,1.63173 -1.91774,3.94108 1.98697,9.51037 2.13942,8.67115 -1.88028,10.35069 -2.09822,0.87669 -5.7419,1.42117 -8.37243,1.25111 -4.31284,-0.27883 -4.79098,-0.58555 -6.46206,-4.14537 -0.99253,-2.11435 -2.54883,-6.68182 -3.45845,-10.14994 -2.03837,-7.771753 -1.16273,-10.264323 4.97024,-14.148093 7.73937,-4.90103 18.09535,-7.62502 29.28812,-7.70381 13.83876,-0.0974 17.04568,1.59668 21.93229,11.58601 6.09577,12.461133 8.21915,28.836093 5.10086,39.336513 -3.70045,12.46078 -17.63458,23.14923 -35.59263,27.30204 -6.60834,1.52819 -22.55116,2.14925 -28.96765,1.12845 z M 44.889435,154.51352 c -6.758401,-3.71434 -9.461089,-6.29707 -8.690616,-8.30489 1.656115,-4.31576 29.59565,-24.63614 33.873505,-24.63614 1.570071,0 1.605491,0.34834 0.386673,3.80284 -3.632218,10.2948 -16.235837,32.20547 -18.510274,32.17904 -0.857608,-0.01 -4.034288,-1.37834 -7.059288,-3.04085 z m 440.465895,-9.71297 c -5.94037,-4.75059 -21.41944,-20.59556 -23.94328,-24.50927 -0.98644,-1.52966 -1.49278,-3.08196 -1.1252,-3.44954 2.10133,-2.10133 37.83303,10.76577 38.39623,13.8266 0.43278,2.3521 -3.6342,12.60727 -6.16798,15.55296 l -2.19388,2.55053 z m -193.46589,1.37806 c -8.23211,-2.30295 -14.43719,-5.94579 -20.67063,-12.13518 l -6.17063,-6.12701 -10.82937,0.43515 c -9.24729,0.37158 -11.77108,0.11612 -17.27541,-1.74863 -21.02142,-7.12162 -33.27953,-25.64685 -31.71827,-47.934653 2.78712,-39.78759 52.89905,-57.3722 80.01915,-28.07926 l 5.56551,6.01143 4.28983,-0.98954 c 14.27266,-3.2923 30.76618,1.76858 41.80645,12.8279 24.65782,24.70038 14.33623,66.906503 -18.87197,77.169543 -7.32165,2.26277 -19.17078,2.52122 -26.14466,0.57025 z m 25.1612,-17.65362 c 6.00638,-3.01613 13.33049,-11.01245 15.25204,-16.65189 6.86635,-20.151633 -7.15251,-40.262343 -28.08613,-40.290853 l -7.17288,-0.01 0.54702,7.25 c 0.98703,13.08161 -3.36003,25.705233 -12.26101,35.605263 -2.45795,2.73382 -4.20644,5.55448 -3.90409,6.29805 0.92452,2.27367 9.17605,7.96504 13.68995,9.44242 5.87644,1.92333 16.40299,1.13476 21.9351,-1.64322 z m -59.14933,-25.20251 c 0.0191,-14.875383 3.77976,-25.000103 12.77163,-34.384533 5.19673,-5.42361 5.07414,-6.04347 -2.18462,-11.04572 -5.72966,-3.94851 -10.3129,-5.32103 -17.59888,-5.27028 -13.65555,0.0951 -24.52036,8.61306 -28.51553,22.35595 -3.58064,12.31696 1.89327,25.604423 13.65499,33.146393 4.80295,3.07979 9.12307,4.24841 16.11054,4.35801 l 5.75,0.0902 0.0119,-9.25001 z m 20.75691,-8.531483 c 2.44895,-5.81263 3.68104,-12.21852 2.35008,-12.21852 -1.52333,0 -6.23036,10.40968 -6.86746,15.18751 -0.50879,3.815553 -0.39619,4.164823 0.97718,3.031013 0.85372,-0.70482 2.44681,-3.404823 3.5402,-6.000003 z M 14.749535,111.32249 c -0.665647,-1.2375 -1.410687,-5.67511 -1.655644,-9.86136 -0.441739,-7.549213 -0.423746,-7.616793 2.203612,-8.276223 1.456943,-0.36567 11.116604,-0.66322 21.465914,-0.66123 17.605951,0.003 29.126018,1.18803 29.126018,2.99511 0,2.18115 -42.484532,18.053703 -48.322629,18.053703 -0.883852,0 -2.151624,-1.0125 -2.817271,-2.25 z m 487.639905,-2.69187 c -17.40408,-4.59789 -33.5,-10.832443 -33.5,-12.975803 0,-0.48237 2.8125,-1.3536 6.25,-1.93609 8.27985,-1.40302 43.19355,-3.57375 45.1855,-2.80937 1.92174,0.73744 2.04359,10.052663 0.21144,16.163133 -1.5605,5.20447 -3.66178,5.38489 -18.14694,1.55813 z M 43.389435,68.552837 c -12.887447,-2.69051 -24.313255,-6.05042 -25.520036,-7.5045 -2.251258,-2.7126 2.943025,-18.47586 6.088134,-18.47586 4.201722,0 28.781055,18.99043 32.238438,24.90799 l 1.806536,3.09201 -2.806536,-0.0704 c -1.543595,-0.0387 -6.856536,-0.91587 -11.806536,-1.94928 z m 419.500005,1.41355 c 0,-2.40847 26.70162,-28.39391 29.17646,-28.39391 1.63679,0 9.46996,7.92824 11.39704,11.53537 1.89077,3.53914 1.89131,3.63194 0.029,5.0034 -7.48668,5.51355 -40.6025,15.18271 -40.6025,11.85514 z"
       id="path196" />
  </g>
</svg>
